<svg width="35" height="40" viewBox="0 0 35 40" fill="none" xmlns="http://www.w3.org/2000/svg">
<path d="M31.6759 24.862C31.7709 24.9427 31.848 25.0415 31.9025 25.1523C31.9569 25.2632 31.9875 25.3838 31.9924 25.5067C31.9973 25.6296 31.9764 25.7521 31.931 25.8668C31.8855 25.9815 31.8165 26.0859 31.7282 26.1735C29.3525 28.6966 25.7891 30.261 21.7674 30.21C18.4014 30.2029 15.1753 28.8933 12.7951 26.5677C10.415 24.2422 9.07462 21.09 9.06738 17.8012C9.06738 10.8888 14.0254 5.29028 21.872 5.29028C25.8563 5.29028 29.7211 7.15646 31.7356 9.37543C31.883 9.56962 31.9535 9.80927 31.9343 10.0503C31.9151 10.2912 31.8074 10.5173 31.6311 10.6869L29.5144 12.6041C29.3448 12.7686 29.1183 12.865 28.8796 12.8745C28.6408 12.8839 28.4071 12.8057 28.2245 12.6552C26.3643 10.991 24.5066 10.1321 21.8222 10.1321C17.1232 10.1321 14.2296 13.21 14.2296 17.8012C14.2296 22.3414 16.8119 25.3681 21.872 25.3681C24.5066 25.3681 26.6233 24.3608 28.3789 22.8961C28.5573 22.7553 28.7821 22.6829 29.0113 22.6923C29.2404 22.7017 29.4582 22.7923 29.624 22.9472L31.6759 24.862Z" fill="#00507D"/>
<path fill-rule="evenodd" clip-rule="evenodd" d="M26.3971 31.6788C26.3984 31.6326 26.3902 31.5867 26.3728 31.5437C26.3554 31.5008 26.3293 31.4617 26.296 31.4289C26.2627 31.3962 26.2229 31.3704 26.1791 31.3531C26.1352 31.3358 26.0882 31.3274 26.041 31.3284C25.9902 31.3264 25.9395 31.3349 25.8923 31.3534C25.8451 31.3718 25.8024 31.3998 25.7671 31.4355L24.8158 32.2871L23.8397 31.4209C23.7722 31.3589 23.6832 31.3245 23.5906 31.3245C23.4981 31.3245 23.409 31.3589 23.3416 31.4209L22.1164 32.506L20.8913 31.4209C20.8238 31.3589 20.7348 31.3245 20.6422 31.3245C20.5497 31.3245 20.4606 31.3589 20.3932 31.4209L19.432 32.2871L18.4832 31.4476C18.4478 31.4121 18.4051 31.3842 18.3579 31.3657C18.3107 31.3473 18.2601 31.3387 18.2093 31.3406C18.1619 31.3392 18.1146 31.3474 18.0705 31.3645C18.0264 31.3816 17.9863 31.4074 17.9527 31.4402C17.9191 31.473 17.8928 31.5122 17.8752 31.5553C17.8577 31.5984 17.8494 31.6446 17.8507 31.6909V33.0048C17.8515 33.069 17.8715 33.1315 17.908 33.1849L19.8703 36.5109L21.8176 39.8296C21.8568 39.8822 21.9069 39.9261 21.9645 39.9586C22.0118 39.9844 22.0648 39.9986 22.1189 39.9999H22.1314C22.1854 39.998 22.2383 39.9838 22.2858 39.9586C22.3422 39.9253 22.3913 39.8815 22.4302 39.8296L24.3825 36.5012L26.3473 33.1751C26.3827 33.1213 26.4025 33.0591 26.4046 32.9951L26.3971 31.6788ZM23.7575 36.1508L23.7052 36.236H20.5426L20.4903 36.1508L18.5679 32.8978V32.4695L19.1905 33.017C19.2566 33.0765 19.3433 33.1095 19.4333 33.1095C19.5232 33.1095 19.6099 33.0765 19.676 33.017L20.6497 32.1654L21.8948 33.2676C21.9562 33.3226 22.0357 33.3545 22.1189 33.3576H22.1314C22.2145 33.3539 22.2937 33.3221 22.3555 33.2676L23.6006 32.1654L24.5768 33.017C24.6425 33.0763 24.7288 33.1093 24.8183 33.1093C24.9078 33.1093 24.9941 33.0763 25.0599 33.017L25.6675 32.4768V32.9051L23.7575 36.1508Z" fill="#ED1C24"/>
<path d="M28.8271 34.4544C30.9951 33.6113 32.9755 32.3661 34.6592 30.7877L33.3543 29.4568C32.0303 30.6985 30.4993 31.7106 28.8271 32.4495V34.4544Z" fill="#ED1C24"/>
<path d="M22.151 2.46145e-05C12.1429 2.46145e-05 4 8.00731 4 17.854C3.99831 21.4462 5.1043 24.9555 7.17378 27.9245C9.24327 30.8936 12.1802 33.1845 15.6018 34.4988V32.5012C12.708 31.2372 10.2508 29.1813 8.52728 26.582C6.8038 23.9826 5.88781 20.9512 5.89006 17.854C5.89006 9.02434 13.1863 1.84187 22.156 1.84187C26.3346 1.8362 30.3522 3.41598 33.3619 6.24819L34.6668 4.91729C31.3047 1.75537 26.8175 -0.00759777 22.151 2.46145e-05Z" fill="#ED1C24"/>
<path d="M7.96925 3.40941L6.72416 2.19287C4.59899 4.21888 2.90947 6.63928 1.75478 9.312C0.600091 11.9847 0.0034948 14.8559 1.53083e-05 17.757C-0.00346419 20.658 0.586243 23.5306 1.73452 26.2059C2.8828 28.8813 4.5665 31.3055 6.6868 33.3364L7.9319 32.1198C5.97392 30.2507 4.41878 28.0174 3.35817 25.5516C2.29756 23.0859 1.75293 20.4377 1.75642 17.763C1.7599 15.0884 2.31141 12.4415 3.37844 9.9784C4.44547 7.51532 6.00642 5.2859 7.96925 3.42158V3.40941Z" fill="#00507D"/>
</svg>
