<svg width="144" height="48" viewBox="0 0 144 48" fill="none" xmlns="http://www.w3.org/2000/svg">
<rect y="0.000244141" width="144" height="48" rx="7" fill="#141414"/>
<path d="M41.6635 21.9374H37.12L36.0289 25.1596H34.1045L38.408 13.2383H40.4074L44.711 25.1596H42.7537L41.6635 21.9374ZM37.5906 20.4505H41.1921L39.4166 15.2211H39.367L37.5906 20.4505Z" fill="white"/>
<path d="M54.0055 20.8139C54.0055 23.5149 52.5601 25.2502 50.3788 25.2502C49.2513 25.3092 48.1893 24.7185 47.6445 23.7295H47.6032V28.0345H45.8193V16.4677H47.546V17.9133H47.5788C48.1478 16.9305 49.211 16.3401 50.346 16.3767C52.5516 16.3767 54.0055 18.1205 54.0055 20.8139ZM52.172 20.8139C52.172 19.0542 51.2627 17.8974 49.8754 17.8974C48.5125 17.8974 47.5957 19.0786 47.5957 20.8139C47.5957 22.5652 48.5125 23.738 49.8754 23.738C51.2627 23.738 52.172 22.5895 52.172 20.8139Z" fill="white"/>
<path d="M63.5695 20.8139C63.5695 23.5149 62.1245 25.2502 59.9433 25.2502C58.8158 25.3092 57.7537 24.7185 57.2089 23.7295H57.1676V28.0345H55.3838V16.4677H57.1104V17.9133H57.1433C57.7123 16.9305 58.7755 16.3401 59.9104 16.3767C62.1161 16.3767 63.5695 18.1205 63.5695 20.8139ZM61.7365 20.8139C61.7365 19.0542 60.8272 17.8974 59.4399 17.8974C58.0769 17.8974 57.1602 19.0786 57.1602 20.8139C57.1602 22.5652 58.0769 23.738 59.4399 23.738C60.8272 23.738 61.7365 22.5895 61.7365 20.8139Z" fill="white"/>
<path d="M69.8915 21.838C70.0237 23.0202 71.172 23.7964 72.7411 23.7964C74.2447 23.7964 75.3264 23.0202 75.3264 21.9542C75.3264 21.0289 74.674 20.4749 73.1292 20.0952L71.5844 19.723C69.3956 19.1942 68.3795 18.1705 68.3795 16.5092C68.3795 14.4524 70.1718 13.0396 72.7167 13.0396C75.2355 13.0396 76.9621 14.4524 77.0203 16.5092H75.2195C75.1117 15.3196 74.1284 14.6014 72.6914 14.6014C71.2544 14.6014 70.2711 15.328 70.2711 16.3855C70.2711 17.2283 70.8991 17.7242 72.4355 18.1039L73.7488 18.4264C76.1944 19.0048 77.2105 19.9874 77.2105 21.7311C77.2105 23.9614 75.4342 25.3583 72.6089 25.3583C69.9655 25.3583 68.1807 23.9942 68.0654 21.838L69.8915 21.838Z" fill="white"/>
<path d="M81.0602 14.4111V16.468H82.713V17.8808H81.0602V22.6724C81.0602 23.4168 81.3911 23.7636 82.1176 23.7636C82.3139 23.7602 82.5098 23.7464 82.7045 23.7224V25.1267C82.3779 25.1878 82.0458 25.2154 81.7136 25.2092C79.9539 25.2092 79.2676 24.5483 79.2676 22.8627V17.8808H78.0039V16.468H79.2677V14.4111H81.0602Z" fill="white"/>
<path d="M83.6699 20.8142C83.6699 18.0795 85.2803 16.3611 87.7916 16.3611C90.3113 16.3611 91.9142 18.0795 91.9142 20.8142C91.9142 23.5564 90.3197 25.2673 87.7916 25.2673C85.2644 25.2673 83.6699 23.5564 83.6699 20.8142ZM90.0966 20.8142C90.0966 18.9383 89.237 17.8311 87.7916 17.8311C86.3461 17.8311 85.4875 18.9467 85.4875 20.8142C85.4875 22.6976 86.3461 23.7964 87.7916 23.7964C89.237 23.7964 90.0966 22.6977 90.0966 20.8142Z" fill="white"/>
<path d="M93.3857 16.4676H95.0873V17.947H95.1286C95.3659 16.9946 96.2385 16.3392 97.2192 16.3766C97.4248 16.3759 97.6298 16.3983 97.8305 16.4432V18.112C97.5709 18.0327 97.3001 17.9962 97.0289 18.0042C96.5044 17.9829 95.9968 18.1919 95.6393 18.5764C95.2819 18.9608 95.1104 19.4823 95.1698 20.0038V25.1592H93.3857V16.4676Z" fill="white"/>
<path d="M106.054 22.6067C105.814 24.1845 104.278 25.2673 102.312 25.2673C99.784 25.2673 98.2148 23.5733 98.2148 20.8555C98.2148 18.1292 99.7925 16.3611 102.237 16.3611C104.642 16.3611 106.154 18.013 106.154 20.6483V21.2595H100.016V21.3673C99.9582 22.0144 100.182 22.6549 100.629 23.1259C101.076 23.597 101.704 23.8531 102.353 23.8292C103.219 23.9103 104.035 23.4132 104.36 22.6067L106.054 22.6067ZM100.024 20.0126H104.369C104.401 19.4312 104.189 18.8626 103.785 18.4439C103.38 18.0251 102.819 17.7942 102.237 17.8067C101.65 17.8032 101.087 18.0343 100.671 18.4485C100.255 18.8627 100.022 19.4258 100.024 20.0126Z" fill="white"/>
<path d="M107.351 17.6005L108.326 13.2383H110.06L108.879 17.6005H107.351Z" fill="white"/>
<path d="M109.982 20.8142C109.982 18.1292 111.461 16.377 113.617 16.377C114.745 16.3209 115.806 16.9187 116.343 17.9136H116.376V13.2383H118.169V25.1596H116.433V23.6812H116.401C115.861 24.6969 114.782 25.3087 113.634 25.2505C111.461 25.2505 109.982 23.4992 109.982 20.8142ZM111.808 20.8142C111.808 22.5983 112.717 23.7383 114.104 23.7383C115.475 23.7383 116.392 22.5814 116.392 20.8142C116.392 19.062 115.475 17.8977 114.104 17.8977C112.717 17.8977 111.808 19.0461 111.808 20.8142Z" fill="white"/>
<path d="M119.741 22.6892C119.741 21.1696 120.906 20.2518 122.971 20.128L125.35 19.9958V19.3348C125.35 18.3683 124.715 17.8226 123.633 17.8226C122.803 17.712 122.02 18.2363 121.807 19.0461H120.138C120.187 17.4758 121.649 16.3611 123.682 16.3611C125.755 16.3611 127.127 17.4926 127.127 19.2027V25.1596H125.417V23.7299H125.376C124.818 24.7172 123.766 25.3224 122.632 25.3086C121.893 25.381 121.158 25.1378 120.607 24.639C120.056 24.1402 119.742 23.4322 119.741 22.6892ZM125.35 21.9046V21.2352L123.211 21.3674C122.145 21.4339 121.542 21.8961 121.542 22.6396C121.542 23.3999 122.17 23.8958 123.128 23.8958C123.689 23.9338 124.241 23.7438 124.659 23.3689C125.078 22.9939 125.327 22.4659 125.35 21.9046H125.35Z" fill="white"/>
<path d="M128.943 16.4678H130.645V17.9471H130.686C131.181 16.9038 132.27 16.2756 133.421 16.3693C135.338 16.3693 136.437 17.6002 136.437 19.5906V25.1593H134.644V19.9374C134.644 18.6325 134.041 17.9059 132.785 17.9059C132.201 17.8911 131.639 18.1301 131.245 18.561C130.85 18.9919 130.661 19.5725 130.727 20.1531V25.1593H128.943V16.4678Z" fill="white"/>
<path d="M35.2082 28.6603C35.2146 28.3681 35.4555 28.1357 35.7478 28.1398C36.0401 28.144 36.2743 28.3832 36.2724 28.6755C36.2704 28.9678 36.033 29.2038 35.7407 29.2041C35.5973 29.2048 35.4597 29.1473 35.3594 29.0449C35.2591 28.9424 35.2045 28.8037 35.2082 28.6603ZM35.2954 35.4642V29.7361H36.1851V35.4642H35.2954Z" fill="white"/>
<path d="M37.6406 31.1414H38.4619V31.8277H38.5256C38.7476 31.3223 39.2655 31.0133 39.8156 31.058C40.2417 31.026 40.6592 31.1894 40.9503 31.5022C41.2414 31.815 41.3744 32.2431 41.3119 32.6658V35.4642H40.4588V32.8795C40.4588 32.1858 40.1569 31.8399 39.5259 31.8399C39.2369 31.8264 38.9564 31.9399 38.7579 32.1506C38.5595 32.3612 38.463 32.648 38.4937 32.9358V35.4642H37.6406V31.1414Z" fill="white"/>
<path d="M42.416 33.3016C42.416 31.9347 43.1182 31.0703 44.2104 31.0703C44.7617 31.0448 45.2782 31.3399 45.536 31.8278H45.5998V29.4541H46.4529V35.4644H45.6354V34.781H45.5679C45.2909 35.2653 44.768 35.556 44.2104 35.5357C43.1107 35.5357 42.416 34.6703 42.416 33.3016ZM43.2973 33.3016C43.2973 34.2185 43.7295 34.7697 44.4523 34.7697C45.1713 34.7697 45.6157 34.21 45.6157 33.3054C45.6157 32.4035 45.1667 31.8363 44.4523 31.8363C43.7341 31.8363 43.2973 32.3922 43.2973 33.3016H43.2973Z" fill="white"/>
<path d="M47.7412 29.8631C47.7279 29.637 47.8539 29.4258 48.0591 29.33C48.2643 29.2342 48.5071 29.2732 48.6719 29.4285C48.8367 29.5838 48.8901 29.8239 48.8067 30.0344C48.7232 30.2449 48.5198 30.3832 48.2934 30.3834C48.1503 30.3908 48.0104 30.3394 47.9062 30.2412C47.8019 30.1429 47.7423 30.0063 47.7412 29.8631ZM47.8678 31.1418H48.7181V35.4647H47.8678V31.1418Z" fill="white"/>
<path d="M50.0928 31.1416H50.914V31.8044H50.9778C51.1665 31.3325 51.6379 31.036 52.145 31.0703C52.2728 31.0684 52.4004 31.0803 52.5256 31.1059V31.9479C52.3691 31.9138 52.2095 31.8962 52.0493 31.8954C51.7648 31.8698 51.4827 31.9656 51.2726 32.1591C51.0624 32.3527 50.9438 32.6259 50.9459 32.9116V35.4644H50.0928V31.1416Z" fill="white"/>
<path d="M53.4209 29.8631C53.4076 29.637 53.5336 29.4258 53.7388 29.33C53.9439 29.2342 54.1868 29.2732 54.3516 29.4285C54.5164 29.5838 54.5698 29.8239 54.4864 30.0344C54.4029 30.2449 54.1995 30.3832 53.9731 30.3834C53.83 30.3908 53.6901 30.3394 53.5859 30.2412C53.4816 30.1429 53.422 30.0063 53.4209 29.8631ZM53.5474 31.1418H54.3978V35.4647H53.5474V31.1418Z" fill="white"/>
<path d="M55.7734 31.1414H56.5947V31.8277H56.6584C56.8804 31.3223 57.3983 31.0133 57.9484 31.058C58.3745 31.026 58.792 31.1894 59.0831 31.5022C59.3742 31.815 59.5072 32.2431 59.4447 32.6658V35.4642H58.5916V32.8795C58.5916 32.1858 58.2897 31.8399 57.6588 31.8399C57.3697 31.8264 57.0892 31.9399 56.8908 32.1506C56.6924 32.3612 56.5959 32.648 56.6266 32.9358V35.4642H55.7734V31.1414Z" fill="white"/>
<path d="M24.1964 24.5247C24.2197 22.69 25.1691 20.9953 26.712 20.0343C25.7343 18.6196 24.1553 17.7548 22.4515 17.7008C20.6589 17.5102 18.9211 18.7875 18.0076 18.7875C17.0765 18.7875 15.67 17.7197 14.1555 17.7513C12.1629 17.8165 10.3502 18.9365 9.38074 20.7015C7.31626 24.3227 8.85618 29.6448 10.8338 32.572C11.8233 34.0054 12.9797 35.6065 14.4928 35.5497C15.9735 35.4875 16.5265 34.5931 18.3138 34.5931C20.0845 34.5931 20.6033 35.5497 22.1471 35.5136C23.736 35.4875 24.737 34.0739 25.6918 32.6269C26.4027 31.6056 26.9497 30.4768 27.3127 29.2824C25.4256 28.4738 24.1986 26.6005 24.1964 24.5247Z" fill="white"/>
<path d="M21.2806 15.7753C22.147 14.7217 22.5738 13.3675 22.4705 12.0002C21.1468 12.1411 19.9241 12.7819 19.046 13.7951C18.1789 14.7947 17.7396 16.1025 17.8249 17.4304C19.1663 17.4444 20.44 16.8344 21.2806 15.7753Z" fill="white"/>
</svg>
