<svg width="145" height="48" viewBox="0 0 145 48" fill="none" xmlns="http://www.w3.org/2000/svg">
<rect x="0.200195" y="0.000244141" width="144" height="48" rx="7" fill="#141414"/>
<path d="M21.8443 30.2368C21.8457 30.3392 21.8123 30.379 21.707 30.3768C21.393 30.3704 21.4353 30.4045 21.4328 30.1048C21.4314 29.9274 21.4303 29.7504 21.4331 29.5729C21.4345 29.4858 21.3977 29.4457 21.3113 29.4461C21.0364 29.4468 20.7615 29.4472 20.4863 29.4457C20.3916 29.4453 20.3612 29.4923 20.3622 29.5819C20.3655 29.8063 20.3604 30.0306 20.3647 30.255C20.3662 30.3446 20.3318 30.3776 20.2436 30.3761C19.9003 30.3704 19.9561 30.4167 19.9547 30.0912C19.9518 29.5013 19.954 28.9114 19.954 28.3215C19.954 28.1623 19.9544 28.1608 20.1085 28.1619C20.4017 28.1637 20.3608 28.1296 20.3637 28.415C20.3651 28.5888 20.3669 28.7626 20.363 28.936C20.3608 29.0307 20.392 29.0758 20.4935 29.0748C20.7648 29.0712 21.036 29.0719 21.3077 29.0744C21.4027 29.0752 21.4353 29.0336 21.4343 28.9429C21.431 28.7222 21.436 28.501 21.4317 28.2806C21.4299 28.191 21.4632 28.1587 21.5521 28.1605C21.8941 28.1673 21.8396 28.12 21.8428 28.4451C21.8453 28.7203 21.8431 28.9952 21.8431 29.2705C21.8428 29.5923 21.84 29.9145 21.8443 30.2368Z" fill="white"/>
<path d="M24.4348 28.9289H24.4301C24.4301 29.1389 24.4326 29.3486 24.4297 29.5586C24.4241 29.9453 24.2043 30.2704 23.8273 30.3485C23.4668 30.4227 23.0876 30.45 22.7919 30.1421C22.6461 29.9898 22.5672 29.8012 22.5632 29.5934C22.5547 29.1557 22.5618 28.7178 22.5586 28.2802C22.5578 28.1902 22.5919 28.1587 22.68 28.1605C23.0241 28.1673 22.966 28.1193 22.9693 28.445C22.9728 28.7887 22.974 29.1325 22.9701 29.4762C22.9647 29.9109 23.3725 30.1245 23.7478 29.9614C23.9911 29.8557 24.0323 29.6299 24.0352 29.398C24.0406 29.0221 24.0387 28.6458 24.0337 28.2694C24.0331 28.1884 24.0549 28.1562 24.1363 28.1609C24.2083 28.1651 24.281 28.1626 24.3534 28.1619C24.4187 28.1611 24.4377 28.1902 24.4366 28.2565C24.432 28.4805 24.4348 28.7045 24.4348 28.9289Z" fill="white"/>
<path d="M21.5 13.1967C21.404 13.0795 21.333 12.9462 21.253 12.8182C21.167 12.6806 21.0266 12.6358 20.9032 12.706C20.7675 12.7835 20.7323 12.9297 20.8172 13.0792C20.8972 13.2192 20.9811 13.3569 21.0634 13.4956C20.685 13.5432 20.3993 13.292 20.3356 12.9426C20.2833 12.6562 20.5567 12.2742 20.8467 12.2398C21.214 12.1961 21.4598 12.3412 21.5921 12.6788C21.6541 12.8365 21.6047 13.1125 21.5 13.1967Z" fill="#D4313E"/>
<path d="M37.6426 16.6873C37.6432 15.8842 37.5651 15.0929 37.3745 14.3127C37.2781 13.9175 37.1409 13.5365 36.9545 13.1746C36.5198 12.3288 35.8561 11.7307 34.9827 11.3616C34.4566 11.1394 33.9069 11.0082 33.3428 10.9261C32.8767 10.8581 32.4082 10.8072 31.9391 10.8061C28.7568 10.7982 25.5737 10.8014 22.3914 10.8004C21.6571 10.8 20.9236 10.7975 20.1914 10.8828C19.5385 10.9588 18.8988 11.0842 18.2885 11.3329C17.5054 11.6515 16.8687 12.15 16.42 12.8749C16.0982 13.3946 15.9007 13.9612 15.7735 14.5572C15.628 15.2391 15.5616 15.9272 15.562 16.6238C15.5638 20.0166 15.5645 23.4088 15.5606 26.8016C15.5599 27.4391 15.5846 28.0727 15.6889 28.7034C15.7745 29.2227 15.8978 29.7295 16.1024 30.2153C16.5856 31.3621 17.4413 32.0983 18.6111 32.4846C18.9815 32.6072 19.3611 32.6931 19.7478 32.7551C20.1122 32.8136 20.4784 32.8698 20.8455 32.8716C22.7645 32.881 24.6835 32.8759 26.6023 32.8759V32.8787C28.268 32.8787 29.9333 32.8759 31.5987 32.8802C32.2251 32.882 32.8476 32.8555 33.4672 32.7526C34.008 32.6623 34.5348 32.5311 35.0372 32.3111C36.0044 31.8876 36.6907 31.1855 37.1007 30.2136C37.3068 29.7244 37.4358 29.2152 37.5157 28.6906C37.596 28.1604 37.6426 27.6294 37.6422 27.0925C37.6393 23.6243 37.6379 20.1556 37.6426 16.6873ZM21.9564 19.956C22.0825 19.7571 22.2302 19.5739 22.3958 19.4055C22.4857 19.3138 22.4932 19.3148 22.5753 19.4192C23.0627 20.0402 23.5168 20.6853 23.9479 21.3465C24.5553 22.2779 25.1057 23.2419 25.5913 24.2428C25.6418 24.3468 25.6931 24.451 25.7386 24.5575C25.7536 24.5937 25.8056 24.6345 25.7644 24.6721C25.7325 24.7012 25.6895 24.6628 25.6554 24.6452C25.42 24.5252 25.1839 24.4066 24.9513 24.2819C24.2364 23.8991 23.5307 23.501 22.866 23.034C22.5635 22.8215 22.2732 22.595 22.0148 22.3284C21.7005 22.0037 21.5349 21.6209 21.5345 21.0852C21.5292 20.7125 21.7216 20.3262 21.9564 19.956ZM25.4834 23.2401C25.1215 22.6556 24.7786 22.0596 24.479 21.4397C24.2482 20.9627 24.046 20.4749 23.9421 19.9538C23.8206 19.3439 23.9159 18.7773 24.3528 18.3064C24.5714 18.0709 24.8463 17.9175 25.1613 17.8437C25.295 17.8122 25.4297 17.7843 25.5644 17.7595C25.7321 17.7291 25.773 17.7535 25.845 17.9068C26.0748 18.3968 26.1908 18.9189 26.2726 19.4492C26.3876 20.1975 26.4325 20.9511 26.4278 21.7468C26.4342 22.3091 26.3937 22.9079 26.3604 23.5074C26.3467 23.7525 26.3177 23.9966 26.2952 24.2413C26.2937 24.2556 26.2927 24.2704 26.2884 24.284C26.2787 24.3134 26.2848 24.3582 26.246 24.3646C26.2084 24.3711 26.1941 24.3306 26.1769 24.3044C25.9447 23.9504 25.7063 23.6003 25.4834 23.2401ZM26.799 21.5181C26.8148 20.7046 26.8649 19.8925 27.0216 19.092C27.1044 18.6691 27.2173 18.2533 27.4104 17.8645C27.4452 17.7947 27.4874 17.7423 27.5756 17.7531C28.0351 17.8079 28.4783 17.9082 28.8199 18.2502C29.1621 18.5931 29.3613 18.9988 29.3201 19.4557C29.333 19.9947 29.1743 20.4519 28.9919 20.9025C28.6869 21.6564 28.2834 22.3595 27.8627 23.0527C27.6147 23.4609 27.3592 23.8647 27.0872 24.2575C27.0581 24.2998 27.0363 24.3747 26.9772 24.36C26.9263 24.347 26.9388 24.2707 26.9356 24.2245C26.9116 23.9002 26.8782 23.5769 26.8596 23.2523C26.8263 22.6742 26.788 22.0965 26.799 21.5181ZM27.4954 24.5535C27.9326 23.6178 28.4289 22.715 28.9746 21.8385C29.486 21.0175 30.0344 20.223 30.6285 19.46C30.7515 19.3023 30.754 19.2987 30.8862 19.4463C31.2253 19.8245 31.513 20.2348 31.6413 20.7354C31.6786 20.881 31.7205 21.0289 31.7061 21.1848C31.6861 21.7098 31.4592 22.1335 31.0708 22.4789C30.3762 23.0971 29.5786 23.5601 28.7733 24.0128C28.3823 24.2328 27.9856 24.4427 27.5842 24.6431C27.5505 24.6599 27.5115 24.7008 27.4756 24.67C27.4319 24.6313 27.4785 24.5893 27.4954 24.5535ZM20.7448 22.4524C20.7648 22.3671 20.7977 22.3581 20.8723 22.3986C21.7435 22.8717 22.6115 23.3508 23.4694 23.8482C24.0987 24.213 24.7251 24.5821 25.3326 24.9828C25.3537 24.9968 25.376 25.0093 25.3957 25.0255C25.4247 25.0495 25.4842 25.061 25.4709 25.1057C25.4559 25.157 25.3967 25.1376 25.3559 25.1376C25.1316 25.1398 24.9068 25.139 24.6825 25.1394H24.0418C24.0418 25.1398 24.0418 25.1398 24.0418 25.1398C23.6365 25.1398 23.2308 25.1409 22.8255 25.1394C21.7768 25.1359 20.892 24.3883 20.7071 23.3558C20.6519 23.0505 20.6734 22.7512 20.7448 22.4524ZM21.7073 30.3759C21.3934 30.3695 21.4357 30.4035 21.4332 30.104C21.4317 29.9266 21.4307 29.7495 21.4336 29.5721C21.435 29.4851 21.398 29.4448 21.3117 29.4452C21.0368 29.446 20.7619 29.4463 20.4867 29.4448C20.3921 29.4445 20.3616 29.4915 20.3628 29.5811C20.3659 29.8054 20.3609 30.0298 20.3653 30.2541C20.3667 30.3437 20.3322 30.3766 20.2441 30.3752C19.9008 30.3695 19.9567 30.4157 19.9552 30.0903C19.9524 29.5004 19.9546 28.9106 19.9546 28.3207C19.9546 28.1616 19.9549 28.1602 20.109 28.1612C20.4021 28.163 20.3613 28.129 20.3641 28.4142C20.3656 28.588 20.3674 28.7618 20.3634 28.9353C20.3613 29.0299 20.3924 29.075 20.4939 29.074C20.7652 29.0704 21.0365 29.0711 21.3081 29.0736C21.403 29.0744 21.4357 29.0328 21.4346 28.9421C21.4313 28.7214 21.4364 28.5002 21.4321 28.2798C21.4303 28.1902 21.4636 28.158 21.5525 28.1598C21.8944 28.1666 21.8399 28.1193 21.8432 28.4443C21.8457 28.7195 21.8435 28.9944 21.8435 29.2696C21.8435 29.5914 21.8406 29.914 21.8449 30.2358C21.846 30.3379 21.8124 30.378 21.7073 30.3759ZM21.8252 25.6634C21.7725 25.5766 21.7829 25.5584 21.8833 25.5555C21.9449 25.5537 22.0062 25.5551 22.0678 25.5551C22.0678 25.5534 22.0674 25.5519 22.0674 25.5501C22.7326 25.5294 23.3977 25.5125 24.0625 25.486C24.4815 25.4691 24.9004 25.4476 25.3204 25.4462C25.3508 25.4462 25.3936 25.4329 25.406 25.472C25.4168 25.5046 25.3799 25.5193 25.3566 25.5354C24.8746 25.8694 24.3868 26.1923 23.8679 26.4693C23.2662 26.7904 22.7509 26.631 22.3097 26.2453C22.1184 26.0772 21.9574 25.8812 21.8252 25.6634ZM24.4345 28.9284H24.4298C24.4298 29.1385 24.4324 29.3482 24.4295 29.5581C24.4238 29.9448 24.2041 30.2699 23.8271 30.348C23.4665 30.4221 23.0874 30.4494 22.7918 30.1415C22.6459 29.9892 22.567 29.8007 22.5631 29.5929C22.5545 29.1553 22.5616 28.7173 22.5585 28.2798C22.5577 28.1898 22.5918 28.1583 22.6799 28.1602C23.024 28.167 22.9659 28.1189 22.9692 28.4447C22.9727 28.7884 22.9738 29.1321 22.9698 29.4757C22.9645 29.9104 23.3723 30.124 23.7475 29.9609C23.9908 29.8552 24.0321 29.6294 24.035 29.3976C24.0403 29.0217 24.0385 28.6453 24.0335 28.269C24.0328 28.1881 24.0546 28.1558 24.136 28.1604C24.208 28.1648 24.2808 28.1623 24.3532 28.1616C24.4184 28.1608 24.4374 28.1898 24.4363 28.2562C24.4316 28.4801 24.4345 28.7041 24.4345 28.9284ZM26.9259 30.3569C26.8897 30.3551 26.8535 30.3565 26.8173 30.3565C26.6062 30.3519 26.6227 30.3967 26.5216 30.1545C26.3862 29.8298 26.4478 29.8828 26.1106 29.8788C25.9009 29.8764 25.691 29.8807 25.4813 29.8774C25.3942 29.876 25.3376 29.9086 25.3057 29.9907C25.2691 30.0852 25.2272 30.1774 25.1864 30.2702C25.1721 30.3032 25.1602 30.3512 25.1237 30.3534C25.0054 30.3612 24.8857 30.3659 24.7678 30.3565C24.7172 30.3526 24.7517 30.3039 24.7627 30.2784C24.8807 30.0104 25.0003 29.743 25.1186 29.475C25.2953 29.075 25.4738 28.6751 25.6461 28.2733C25.6813 28.192 25.7282 28.1662 25.8157 28.1565C26.0038 28.1354 26.1002 28.197 26.1765 28.3819C26.4356 29.0101 26.7181 29.6288 26.995 30.2494C27.0341 30.3365 27.0126 30.3619 26.9259 30.3569ZM30.1814 28.2665C30.0176 28.7307 29.858 29.1962 29.6971 29.6609C29.6305 29.8523 29.5613 30.043 29.4994 30.2358C29.4721 30.3211 29.4273 30.359 29.3348 30.3563C29.061 30.3483 29.1152 30.3871 29.0292 30.1383C28.8966 29.7556 28.7536 29.3764 28.6371 28.9886C28.6285 28.96 28.6163 28.9309 28.5812 28.9307C28.5328 28.9303 28.5289 28.9737 28.5174 29.0066C28.3776 29.4101 28.2347 29.8126 28.1013 30.2182C28.067 30.3226 28.0175 30.3612 27.9078 30.3576C27.6996 30.3505 27.701 30.3559 27.634 30.1638C27.4179 29.5459 27.2008 28.9281 26.9836 28.3107C26.9764 28.2902 26.9732 28.268 26.9635 28.2487C26.9273 28.1751 26.9639 28.1594 27.0287 28.1623C27.0721 28.1637 27.1158 28.1627 27.1592 28.1627C27.1882 28.1627 27.2176 28.1666 27.2459 28.1619C27.3509 28.1451 27.3932 28.2032 27.4212 28.2934C27.5541 28.7217 27.6903 29.1489 27.8254 29.5764C27.8354 29.6075 27.8444 29.6431 27.8852 29.6435C27.9261 29.6435 27.9351 29.6086 27.9454 29.5767C28.0902 29.1374 28.2364 28.698 28.3791 28.2576C28.4002 28.1927 28.4314 28.1633 28.5009 28.1604C28.7407 28.1501 28.7453 28.1465 28.8228 28.3709C28.9593 28.7675 29.0894 29.1664 29.2223 29.5643C29.2331 29.5965 29.2306 29.6452 29.2804 29.6423C29.3241 29.6395 29.3291 29.5968 29.3402 29.562C29.4793 29.1277 29.6198 28.6941 29.7577 28.2597C29.7796 28.191 29.8172 28.1573 29.8911 28.1619C29.9634 28.1658 30.0358 28.1644 30.1082 28.1623C30.1903 28.1594 30.2096 28.187 30.1814 28.2665ZM29.4713 26.5235C28.9016 26.2478 28.3884 25.8827 27.8652 25.5322C27.843 25.5172 27.8079 25.5028 27.8229 25.467C27.8344 25.4387 27.8666 25.4473 27.891 25.4469C27.9562 25.4455 28.0215 25.4465 28.0866 25.4465C28.0863 25.448 28.0863 25.449 28.0863 25.4505C28.7841 25.4717 29.4814 25.4878 30.1788 25.5154C30.5584 25.53 30.9371 25.5544 31.3169 25.5559C31.455 25.5563 31.4646 25.5716 31.3912 25.6863C31.1711 26.0286 30.9099 26.3278 30.535 26.5116C30.181 26.6847 29.8315 26.698 29.4713 26.5235ZM32.1835 30.358C31.7201 30.3537 31.2568 30.3544 30.7935 30.3576C30.6999 30.3584 30.6651 30.3279 30.6662 30.2326C30.6705 29.9068 30.668 29.5811 30.668 29.2549C30.6676 28.9363 30.6709 28.6178 30.6662 28.2988C30.6647 28.1985 30.692 28.1573 30.7999 28.1583C31.2489 28.163 31.698 28.1619 32.1466 28.159C32.2384 28.1583 32.277 28.187 32.2753 28.2834C32.2702 28.5633 32.2964 28.5271 32.0305 28.5285C31.7588 28.5299 31.4872 28.5318 31.216 28.5271C31.1113 28.5253 31.07 28.5647 31.0772 28.6676C31.0819 28.7364 31.0776 28.8052 31.078 28.874C31.0787 29.0198 31.0888 29.0306 31.2306 29.031C31.4191 29.0316 31.6072 29.0335 31.7954 29.0302C31.8825 29.0288 31.9273 29.0525 31.9069 29.1492C31.8994 29.184 31.904 29.2216 31.905 29.2578C31.9094 29.3968 31.9097 29.3972 31.7747 29.3976C31.5861 29.3983 31.398 29.4011 31.2098 29.3965C31.1103 29.394 31.0729 29.4355 31.0772 29.5323C31.0819 29.6369 31.0776 29.7423 31.0787 29.8474C31.0797 29.9857 31.0991 30.006 31.2352 30.0064C31.5431 30.0075 31.851 30.0068 32.1588 30.0068C32.3154 30.0072 32.3169 30.0089 32.3176 30.1638C32.3176 30.182 32.3157 30.2003 32.3179 30.2182C32.329 30.3189 32.2903 30.359 32.1835 30.358ZM32.5233 23.3591C32.3645 24.1801 31.8857 24.7345 31.0984 25.0208C30.8106 25.1255 30.5092 25.1294 30.21 25.1355C29.8301 25.1434 29.4498 25.1373 29.0697 25.1373V25.138C28.6679 25.138 28.2662 25.1384 27.8645 25.1373C27.8272 25.1369 27.7723 25.1552 27.7595 25.1079C27.7477 25.0635 27.801 25.0459 27.8325 25.0248C28.42 24.6406 29.0202 24.2772 29.6266 23.9235C30.4236 23.4587 31.2296 23.0103 32.038 22.5663C32.1459 22.5072 32.2563 22.4524 32.3616 22.3889C32.4376 22.343 32.4688 22.3649 32.4892 22.4445C32.5688 22.7473 32.582 23.0552 32.5233 23.3591ZM33.292 28.4551C33.2955 29.041 33.2934 29.6273 33.2927 30.2132C33.2927 30.3505 33.2873 30.3548 33.154 30.3563C32.9003 30.3584 32.9003 30.3584 32.9007 30.1053V29.2589H32.8945C32.8945 28.9187 32.8956 28.5787 32.8935 28.239C32.8931 28.1888 32.9071 28.163 32.9584 28.1623C32.9655 28.1619 32.9727 28.1616 32.9801 28.1616C33.3554 28.1648 33.2901 28.1153 33.292 28.4551ZM26.2123 29.4061C26.2454 29.4818 26.2239 29.5266 26.1372 29.5281C26.05 29.5294 25.9633 29.5283 25.8762 29.5283V29.5287C25.7931 29.5287 25.71 29.5291 25.6264 29.5287C25.5476 29.5281 25.5193 29.4904 25.5505 29.4169C25.6397 29.2073 25.7304 28.9979 25.821 28.7891C25.8325 28.7629 25.8447 28.7332 25.8808 28.7349C25.9145 28.7367 25.9292 28.7632 25.9414 28.7905C26.0321 28.9955 26.1224 29.2008 26.2123 29.4061Z" fill="url(#paint0_linear_100_11222)"/>
<path d="M25.4718 25.1066C25.4567 25.1578 25.3976 25.1385 25.3567 25.1385C25.1323 25.1407 24.9076 25.14 24.6832 25.1403H24.0424C24.0424 25.1407 24.0424 25.1407 24.0424 25.1407C23.6371 25.1407 23.2313 25.1417 22.826 25.1403C21.7773 25.1367 20.8925 24.3891 20.7075 23.3565C20.653 23.0512 20.6742 22.7519 20.7455 22.453C20.7656 22.3677 20.7985 22.3588 20.8731 22.3993C21.7444 22.8724 22.6124 23.3515 23.4705 23.849C24.0997 24.2139 24.7262 24.583 25.3337 24.9837C25.3549 24.9976 25.3771 25.0102 25.3968 25.0263C25.4255 25.0503 25.485 25.0618 25.4718 25.1066Z" fill="white"/>
<path d="M25.7655 24.6737C25.7335 24.7027 25.6905 24.6644 25.6565 24.6469C25.421 24.5268 25.1849 24.4081 24.9523 24.2834C24.2373 23.9007 23.5316 23.5024 22.8667 23.0355C22.5642 22.823 22.2739 22.5964 22.0155 22.3298C21.7011 22.005 21.5356 21.6223 21.5353 21.0865C21.5303 20.7134 21.7226 20.327 21.9575 19.9568C22.0836 19.7579 22.2313 19.5747 22.3969 19.4063C22.4868 19.3145 22.4943 19.3156 22.5764 19.4199C23.0639 20.041 23.5179 20.6861 23.9491 21.3474C24.5566 22.2789 25.107 23.243 25.5927 24.2439C25.6432 24.3479 25.6945 24.4523 25.74 24.5586C25.7547 24.5952 25.8063 24.6361 25.7655 24.6737Z" fill="white"/>
<path d="M29.3208 19.4561C29.3337 19.9951 29.175 20.4525 28.9926 20.903C28.6876 21.6571 28.284 22.3602 27.8632 23.0534C27.6151 23.4616 27.3597 23.8656 27.0876 24.2583C27.0586 24.3006 27.0367 24.3755 26.9776 24.3608C26.9267 24.348 26.9392 24.2715 26.936 24.2254C26.912 23.901 26.8786 23.5778 26.86 23.253C26.8271 22.6753 26.7887 22.0979 26.7998 21.519C26.8156 20.7055 26.8658 19.8934 27.0224 19.0927C27.1052 18.6698 27.2181 18.254 27.4112 17.8652C27.446 17.7953 27.4883 17.743 27.5765 17.7537C28.0359 17.8085 28.4793 17.9089 28.8208 18.2508C29.1628 18.5931 29.3621 18.9987 29.3208 19.4561Z" fill="white"/>
<path d="M31.7064 21.1855C31.6863 21.7106 31.4595 22.1342 31.071 22.4797C30.3764 23.098 29.5786 23.5611 28.7733 24.0137C28.3823 24.2337 27.9855 24.4438 27.584 24.6441C27.5504 24.6609 27.5114 24.7018 27.4755 24.671C27.4314 24.6326 27.478 24.5908 27.4949 24.5549C27.9321 23.619 28.4285 22.7163 28.9743 21.8396C29.4858 21.0185 30.0342 20.2239 30.6284 19.4609C30.7513 19.3032 30.7538 19.2996 30.8861 19.4473C31.2251 19.8254 31.5128 20.2358 31.6412 20.7365C31.6792 20.8816 31.7208 21.0296 31.7064 21.1855Z" fill="white"/>
<path d="M26.3616 23.5094C26.3481 23.7545 26.319 23.9986 26.2964 24.2434C26.295 24.2577 26.2939 24.2724 26.2896 24.286C26.2799 24.3154 26.286 24.3603 26.2473 24.3667C26.2096 24.3731 26.1953 24.3326 26.1781 24.3065C25.9462 23.9523 25.7075 23.6022 25.4846 23.242C25.1226 22.6574 24.7796 22.0614 24.48 21.4414C24.2492 20.9643 24.047 20.4766 23.9432 19.9555C23.8216 19.3455 23.917 18.7788 24.3538 18.3079C24.5725 18.0724 24.8474 17.919 25.1625 17.8452C25.2961 17.8136 25.4309 17.7857 25.5657 17.7609C25.7334 17.7305 25.7742 17.7549 25.8463 17.9083C26.076 18.3982 26.1922 18.9204 26.2738 19.4508C26.3889 20.1991 26.4337 20.9529 26.429 21.7486C26.4354 22.3108 26.395 22.9102 26.3616 23.5094Z" fill="white"/>
<path d="M25.3573 25.5358C24.8752 25.8698 24.3875 26.1927 23.8685 26.4698C23.2667 26.7909 22.7513 26.6314 22.3101 26.2458C22.1184 26.078 21.9575 25.882 21.8252 25.6637C21.7725 25.577 21.7829 25.5587 21.8833 25.5558C21.9449 25.554 22.0062 25.5555 22.0678 25.5555C22.0678 25.5536 22.0675 25.5523 22.0675 25.5505C22.7327 25.5296 23.3979 25.5128 24.0627 25.4863C24.4817 25.4694 24.9007 25.4479 25.3207 25.4465C25.3512 25.4465 25.3938 25.4333 25.4064 25.4723C25.4175 25.505 25.3806 25.5197 25.3573 25.5358Z" fill="white"/>
<path d="M32.5237 23.3599C32.3649 24.1809 31.8861 24.7354 31.0987 25.0218C30.8109 25.1264 30.5095 25.1304 30.2103 25.1365C29.8303 25.1444 29.45 25.1383 29.0698 25.1383V25.139C28.668 25.139 28.2663 25.1393 27.8645 25.1383C27.8272 25.1379 27.7724 25.1562 27.7595 25.1089C27.7477 25.0644 27.8011 25.0469 27.8325 25.0257C28.42 24.6415 29.0204 24.2781 29.6268 23.9243C30.4239 23.4595 31.2299 23.0112 32.0384 22.5671C32.1463 22.5079 32.2567 22.4531 32.3621 22.3897C32.438 22.3438 32.4692 22.3657 32.4897 22.4453C32.5692 22.748 32.5825 23.0559 32.5237 23.3599Z" fill="white"/>
<path d="M32.1835 30.3584C31.7201 30.3541 31.2568 30.3548 30.7934 30.358C30.6998 30.3587 30.665 30.3283 30.6661 30.2329C30.6704 29.9071 30.6679 29.5814 30.6679 29.2552C30.6675 28.9365 30.6708 28.6179 30.6661 28.299C30.6646 28.1986 30.6919 28.1574 30.7998 28.1585C31.2489 28.1632 31.698 28.1621 32.1467 28.1592C32.2384 28.1585 32.2771 28.1872 32.2753 28.2836C32.2703 28.5635 32.2964 28.5273 32.0305 28.5287C31.7588 28.5302 31.4872 28.5319 31.2159 28.5273C31.1112 28.5255 31.07 28.5649 31.0771 28.6677C31.0818 28.7366 31.0775 28.8054 31.0779 28.8742C31.0786 29.0201 31.0887 29.0308 31.2306 29.0312C31.4191 29.0319 31.6073 29.0337 31.7954 29.0304C31.8825 29.0291 31.9273 29.0527 31.9069 29.1495C31.8994 29.1842 31.904 29.2219 31.905 29.2581C31.9094 29.3972 31.9098 29.3974 31.7746 29.3978C31.5861 29.3986 31.398 29.4014 31.2098 29.3968C31.1102 29.3943 31.0729 29.4358 31.0771 29.5326C31.0818 29.6373 31.0775 29.7427 31.0786 29.8476C31.0797 29.986 31.099 30.0064 31.2353 30.0068C31.5431 30.0078 31.851 30.0071 32.1589 30.0071C32.3154 30.0075 32.3169 30.0093 32.3177 30.1641C32.3177 30.1823 32.3158 30.2007 32.3179 30.2186C32.3291 30.3193 32.2904 30.3595 32.1835 30.3584Z" fill="white"/>
<path d="M33.2921 28.4557C33.2957 29.0417 33.2935 29.6281 33.2928 30.2141C33.2928 30.3513 33.2875 30.3557 33.1541 30.3571C32.9004 30.3592 32.9004 30.3592 32.9008 30.1062V29.2596H32.8946C32.8946 28.9195 32.8957 28.5794 32.8936 28.2396C32.8932 28.1894 32.9072 28.1637 32.9585 28.1629C32.9656 28.1625 32.9728 28.1623 32.9803 28.1623C33.3555 28.1654 33.2903 28.116 33.2921 28.4557Z" fill="white"/>
<path d="M31.3912 25.6859C31.1712 26.0282 30.9099 26.3275 30.535 26.5113C30.1812 26.6848 29.8318 26.6981 29.4716 26.5239C28.9017 26.2483 28.3885 25.883 27.8652 25.5325C27.843 25.5175 27.8079 25.5032 27.823 25.4673C27.8344 25.439 27.8667 25.4476 27.891 25.4473C27.9562 25.4458 28.0215 25.4469 28.0867 25.4469C28.0864 25.4483 28.0864 25.4494 28.0864 25.4508C28.7841 25.472 29.4817 25.4881 30.1791 25.5157C30.5586 25.5304 30.9374 25.5548 31.3174 25.5562C31.4553 25.5559 31.465 25.5712 31.3912 25.6859Z" fill="white"/>
<path d="M26.9965 30.2509C26.7195 29.6301 26.437 29.0111 26.1779 28.3832C26.1016 28.1979 26.0052 28.1367 25.8171 28.1578C25.7292 28.1675 25.6823 28.1933 25.6475 28.2746C25.4751 28.6764 25.297 29.076 25.1199 29.4763C25.0017 29.7445 24.8819 30.0118 24.7641 30.2799C24.7526 30.3057 24.7186 30.3541 24.769 30.358C24.887 30.3673 25.0067 30.3627 25.125 30.3548C25.1615 30.3523 25.1734 30.3046 25.1877 30.2717C25.2282 30.1792 25.2702 30.0867 25.307 29.9922C25.3389 29.9097 25.3955 29.8774 25.4827 29.8789C25.6927 29.8818 25.9023 29.8774 26.112 29.8803C26.4496 29.8843 26.3876 29.8312 26.5231 30.1559C26.6239 30.3979 26.6077 30.3534 26.8187 30.358C26.855 30.358 26.8912 30.3563 26.9274 30.3584C27.0137 30.3627 27.0352 30.3373 26.9965 30.2509ZM26.1382 29.5287C26.0511 29.5301 25.9643 29.5291 25.8773 29.5291V29.5294C25.7941 29.5294 25.711 29.5297 25.6275 29.5294C25.5486 29.5287 25.5203 29.491 25.5514 29.4176C25.6407 29.2079 25.7314 28.9986 25.8221 28.7897C25.8335 28.7635 25.8457 28.7338 25.8819 28.7355C25.9156 28.7373 25.9303 28.7638 25.9425 28.7911C26.0328 28.9964 26.1231 29.2015 26.2127 29.4072C26.2464 29.4825 26.2246 29.5272 26.1382 29.5287Z" fill="white"/>
<path d="M30.1816 28.2674C30.0177 28.7314 29.8583 29.197 29.6974 29.6619C29.6307 29.8533 29.5615 30.044 29.4995 30.2367C29.4723 30.3221 29.4275 30.3601 29.335 30.3572C29.0612 30.3493 29.1153 30.388 29.0293 30.1393C28.8967 29.7565 28.7537 29.3773 28.6373 28.9895C28.6286 28.9609 28.6164 28.9318 28.5813 28.9315C28.5329 28.9311 28.529 28.9745 28.5175 29.0074C28.3778 29.411 28.2347 29.8135 28.1014 30.2191C28.067 30.3235 28.0176 30.3622 27.9078 30.3586C27.6996 30.3514 27.7011 30.3568 27.6341 30.1647C27.418 29.5469 27.2007 28.9289 26.9836 28.3114C26.9764 28.291 26.9732 28.2688 26.9635 28.2494C26.9273 28.176 26.9639 28.1601 27.0287 28.163C27.0721 28.1645 27.1158 28.1634 27.1591 28.1634C27.1882 28.1634 27.2176 28.1673 27.2459 28.1627C27.351 28.1458 27.3932 28.2039 27.4211 28.2943C27.5541 28.7225 27.6903 29.1497 27.8255 29.5773C27.8355 29.6085 27.8444 29.6439 27.8853 29.6443C27.9262 29.6443 27.9351 29.6096 27.9455 29.5777C28.0902 29.1383 28.2366 28.6989 28.3792 28.2583C28.4003 28.1936 28.4315 28.1641 28.501 28.1613C28.7408 28.1508 28.7454 28.1473 28.8228 28.3716C28.9594 28.7684 29.0895 29.1673 29.2225 29.5651C29.2332 29.5974 29.2307 29.6461 29.2806 29.6432C29.3242 29.6404 29.3293 29.5977 29.3404 29.563C29.4795 29.1286 29.6199 28.695 29.758 28.2606C29.7798 28.1917 29.8174 28.158 29.8913 28.1627C29.9637 28.1667 30.0361 28.1652 30.1085 28.163C30.1905 28.1601 30.2099 28.1878 30.1816 28.2674Z" fill="white"/>
<path d="M32.0673 13.4962C31.9569 13.6378 31.8483 13.7807 31.7358 13.9209C30.8946 14.9702 29.8271 15.6912 28.5492 16.0976C27.6116 16.3958 26.6516 16.4682 25.6754 16.3391C24.6447 16.203 23.7043 15.8342 22.8424 15.259C22.4232 14.9791 22.0397 14.6552 21.7047 14.2782C21.5065 14.0549 21.3062 13.8324 21.1391 13.5833C21.1184 13.5522 21.1051 13.5102 21.0628 13.4962C20.9804 13.3576 20.8965 13.2199 20.8167 13.0798C20.7313 12.9304 20.7668 12.7842 20.9027 12.7067C21.0259 12.6365 21.1668 12.681 21.2524 12.8189C21.3323 12.9469 21.4033 13.0801 21.4993 13.1973C21.6567 13.4633 21.8573 13.6959 22.0663 13.9205C22.8798 14.796 23.8635 15.3924 25.0199 15.6962C25.7585 15.8901 26.5094 15.9388 27.2687 15.8496C28.7713 15.673 30.0296 15.0161 31.0646 13.9205C31.2563 13.7177 31.429 13.4998 31.5888 13.2712C31.6046 13.2482 31.6311 13.23 31.6268 13.1963C31.7228 13.0834 31.7967 12.9562 31.8716 12.8293C31.9174 12.7519 31.9777 12.6913 32.0719 12.6791C32.1744 12.6659 32.2575 12.7025 32.316 12.7867C32.3748 12.8712 32.3808 12.963 32.3299 13.0526C32.2447 13.2013 32.155 13.3483 32.0673 13.4962Z" fill="#FEFEFE"/>
<path d="M32.067 13.4962C32.1548 13.3482 32.2444 13.2012 32.3301 13.0518C32.3814 12.9622 32.3748 12.8704 32.3161 12.7858C32.2577 12.7016 32.1745 12.6651 32.0721 12.6783C31.9778 12.6905 31.9176 12.7511 31.8717 12.8286C31.7967 12.9554 31.7226 13.0827 31.6269 13.1956C31.5624 13.1597 31.5394 13.092 31.5273 13.0306C31.4505 12.64 31.6638 12.3096 32.038 12.2375C32.4391 12.1605 32.7939 12.4759 32.7939 12.8633C32.7939 13.2206 32.5354 13.4661 32.2046 13.5202C32.1559 13.5285 32.1136 13.5012 32.067 13.4962Z" fill="#D4313E"/>
<path d="M52.8318 19.1637L51.8619 21.3609H50.1201L54.3956 11.6817H56.1374L60.3931 21.3609H58.6513L57.6814 19.1637H52.8318ZM57.0282 17.6396L55.2665 13.6611L53.5049 17.6396H57.0282ZM68.6809 17.6396C68.6809 18.7481 68.3378 19.6652 67.6515 20.391C66.9653 21.1167 66.1472 21.4796 65.1971 21.4796C64.2602 21.4796 63.4223 21.0705 62.6833 20.2524V24.0528H61.1394V13.9976H62.6833V15.2841C63.3035 14.3473 64.1018 13.8788 65.0784 13.8788C66.0944 13.8788 66.9456 14.2284 67.6318 14.9279C68.3311 15.6273 68.6809 16.5312 68.6809 17.6396ZM64.8409 20.094C65.4742 20.094 66.0086 19.8697 66.4442 19.4211C66.8928 18.9592 67.1171 18.3786 67.1171 17.6792C67.1171 16.9798 66.8928 16.3992 66.4442 15.9373C66.0086 15.4755 65.4808 15.2446 64.8606 15.2446C64.2404 15.2446 63.7192 15.4821 63.2969 15.9571C62.8746 16.419 62.6635 16.993 62.6635 17.6792C62.6635 18.3786 62.8746 18.9592 63.2969 19.4211C63.7192 19.8697 64.2338 20.094 64.8409 20.094ZM77.5969 17.6396C77.5969 18.7481 77.2538 19.6652 76.5675 20.391C75.8813 21.1167 75.0632 21.4796 74.1131 21.4796C73.1761 21.4796 72.3383 21.0705 71.5993 20.2524V24.0528H70.0554V13.9976H71.5993V15.2841C72.2195 14.3473 73.0179 13.8788 73.9944 13.8788C75.0104 13.8788 75.8616 14.2284 76.5478 14.9279C77.2471 15.6273 77.5969 16.5312 77.5969 17.6396ZM73.7569 20.094C74.3902 20.094 74.9246 19.8697 75.3602 19.4211C75.8088 18.9592 76.0331 18.3786 76.0331 17.6792C76.0331 16.9798 75.8088 16.3992 75.3602 15.9373C74.9246 15.4755 74.3968 15.2446 73.7766 15.2446C73.1564 15.2446 72.6352 15.4821 72.2129 15.9571C71.7906 16.419 71.5795 16.993 71.5795 17.6792C71.5795 18.3786 71.7906 18.9592 72.2129 19.4211C72.6352 19.8697 73.1498 20.094 73.7569 20.094ZM85.8992 16.6499H87.5223V19.9555C86.6117 20.9716 85.3054 21.4796 83.6031 21.4796C82.1647 21.4796 80.964 21.0046 80.0006 20.0545C79.0373 19.1044 78.5557 17.9168 78.5557 16.4915C78.5557 15.0664 79.044 13.8722 80.0205 12.9089C81.0101 11.9324 82.2044 11.4441 83.6031 11.4441C85.0019 11.4441 86.1631 11.8466 87.0868 12.6515L86.2159 13.8986C85.5429 13.3311 84.7181 13.0474 83.7417 13.0474C82.752 13.0474 81.9206 13.3708 81.2476 14.0173C80.5878 14.6507 80.258 15.4755 80.258 16.4915C80.258 17.5077 80.5747 18.3324 81.2081 18.9658C81.8546 19.586 82.653 19.8961 83.6031 19.8961C84.5268 19.8961 85.2922 19.6981 85.8992 19.3023V16.6499ZM95.0453 21.3609H93.64V20.3712C93.0197 21.1101 92.2016 21.4796 91.1856 21.4796C90.407 21.4796 89.767 21.2619 89.2656 20.8264C88.7773 20.3777 88.5332 19.7971 88.5332 19.0846C88.5332 18.372 88.7971 17.8309 89.3249 17.4614C89.8527 17.092 90.5785 16.9072 91.5022 16.9072H93.5211V16.6302C93.5211 15.6537 92.9736 15.1654 91.8783 15.1654C91.1921 15.1654 90.4796 15.4161 89.7406 15.9176L89.0477 14.9477C89.9583 14.2351 90.9744 13.8788 92.096 13.8788C93.0066 13.8788 93.7257 14.1097 94.2535 14.5715C94.7814 15.0202 95.0453 15.6998 95.0453 16.6103V21.3609ZM93.5014 17.9959H91.7595C90.6379 17.9959 90.0771 18.3456 90.0771 19.0449C90.0771 19.4013 90.2156 19.6784 90.4927 19.8763C90.7699 20.061 91.1592 20.1535 91.6606 20.1535C92.1752 20.1535 92.6107 20.0148 92.9669 19.7378C93.3233 19.4475 93.5014 19.0713 93.5014 18.6095V17.9959ZM98.3851 21.3609H96.8404V11.0879H98.3851V21.3609ZM101.807 21.3609H100.263V11.0879H101.807V21.3609ZM110.534 18.3522H104.755C104.794 18.88 105.038 19.3089 105.486 19.6388C105.935 19.9687 106.457 20.1336 107.05 20.1336C107.987 20.1336 108.687 19.8433 109.149 19.2627L110.039 20.2326C109.247 21.0639 108.212 21.4796 106.932 21.4796C105.876 21.4796 104.992 21.13 104.279 20.4305C103.566 19.7312 103.21 18.8074 103.21 17.6594C103.21 16.5377 103.573 15.6273 104.299 14.9279C105.024 14.2284 105.902 13.8788 106.932 13.8788C107.961 13.8788 108.818 14.1889 109.505 14.8091C110.191 15.4293 110.534 16.254 110.534 17.2833V18.3522ZM108.99 17.1249C108.99 16.5312 108.799 16.0627 108.416 15.7196C108.047 15.3765 107.565 15.2049 106.971 15.2049C106.377 15.2049 105.856 15.3831 105.407 15.7394C104.972 16.0957 104.755 16.5576 104.755 17.1249H108.99ZM113.414 18.1938V21.3609H111.87V13.9976H113.414V15.4623C113.664 15.0005 114.001 14.6243 114.424 14.334C114.859 14.0437 115.315 13.892 115.789 13.8788L115.809 15.4425H115.73C114.978 15.4425 114.404 15.6866 114.008 16.1748C113.612 16.6631 113.414 17.3361 113.414 18.1938ZM116.069 23.558L116.782 22.311C117.112 22.6144 117.449 22.7662 117.791 22.7662C118.122 22.7662 118.398 22.6408 118.623 22.3902C118.847 22.1526 118.959 21.8821 118.959 21.5786C118.959 21.4598 117.963 18.9328 115.97 13.9976H117.633L119.85 19.4211L122.047 13.9976H123.71L120.127 22.7464C119.916 23.2214 119.613 23.5976 119.216 23.8747C118.821 24.1518 118.385 24.2903 117.911 24.2903C117.224 24.2903 116.611 24.0463 116.069 23.558Z" fill="white"/>
<path d="M50.8403 34.8012H51.9347V29.5116H50.8403V34.8012ZM51.3971 28.8108C51.7811 28.8108 52.0883 28.5036 52.0883 28.11C52.0883 27.7164 51.7811 27.4092 51.3971 27.4092C51.0035 27.4092 50.6963 27.7164 50.6963 28.11C50.6963 28.5036 51.0035 28.8108 51.3971 28.8108ZM53.3715 34.8012H54.4659V27.6972H53.3715V34.8012ZM58.13 30.3468C58.946 30.3468 59.5892 30.8652 59.6084 31.6812H56.6804C56.7956 30.846 57.3908 30.3468 58.13 30.3468ZM60.6068 33.2268H59.426C59.2244 33.6396 58.85 33.966 58.178 33.966C57.3716 33.966 56.7476 33.438 56.6708 32.5644H60.7124C60.7412 32.382 60.7508 32.2092 60.7508 32.0268C60.7508 30.4716 59.6852 29.4252 58.178 29.4252C56.6132 29.4252 55.538 30.4908 55.538 32.1516C55.538 33.8124 56.6612 34.8876 58.178 34.8876C59.474 34.8876 60.3092 34.1484 60.6068 33.2268ZM67.9984 34.8012H69.4288L66.4816 31.47L69.3808 28.1292H68.008L65.416 31.1724V28.1292H64.3216V34.8012H65.416V31.8156L67.9984 34.8012ZM74.0829 28.1196H70.3965V34.8012H74.0829V33.9084H71.4909V31.8636H73.795V30.9708H71.4909V29.0124H74.0829V28.1196ZM79.9333 32.91C79.9333 30.4716 76.4005 31.4124 76.4005 29.9052C76.4005 29.262 76.8901 28.9548 77.5237 28.974C78.2149 28.9932 78.6085 29.406 78.6469 29.8572H79.8565C79.7605 28.7148 78.8581 28.0428 77.5813 28.0428C76.2181 28.0428 75.2869 28.7724 75.2869 29.9436C75.2869 32.4012 78.8293 31.3548 78.8293 32.9676C78.8293 33.534 78.3973 33.9468 77.6293 33.9468C76.8709 33.9468 76.4869 33.5052 76.4389 32.958H75.2677C75.2677 34.0428 76.1317 34.7436 77.3029 34.8492V35.982H77.8309C78.1669 35.982 78.3685 36.0492 78.3685 36.3372C78.3685 36.6252 78.1669 36.6924 77.8309 36.6924H76.7845V37.3836H78.0517C78.7333 37.3836 79.2709 36.99 79.2709 36.3372C79.2709 35.6748 78.7333 35.3292 78.0229 35.3292V34.8492C79.2613 34.6956 79.9333 33.8124 79.9333 32.91ZM81.2247 34.8012H82.3191V31.8828H84.5271V30.99H82.3191V29.022H85.1511V28.1292H81.2247V34.8012ZM89.8517 28.1196H86.1653V34.8012H89.8517V33.9084H87.2597V31.8636H89.5637V30.9708H87.2597V29.0124H89.8517V28.1196ZM93.3788 28.1292H91.1997V34.8012H93.3788C95.5196 34.8012 96.9213 33.5436 96.9213 31.4892C96.9213 29.4252 95.5196 28.1292 93.3788 28.1292ZM92.2941 33.9084V29.022H93.3788C94.9533 29.022 95.7981 29.9628 95.7981 31.4892C95.7981 33.006 94.9533 33.9084 93.3788 33.9084H92.2941ZM98.0061 34.8012H99.1005V28.1292H98.0061V34.8012ZM98.5532 27.4572C98.87 27.4572 99.1293 27.2076 99.1293 26.8812C99.1293 26.5644 98.87 26.3052 98.5532 26.3052C98.2268 26.3052 97.9772 26.5644 97.9772 26.8812C97.9772 27.2076 98.2268 27.4572 98.5532 27.4572ZM104.925 28.1196V33.0924L101.632 28.1196H100.538V34.8012H101.632V29.8188L104.925 34.8012H106.019V28.1196H104.925Z" fill="white"/>
<defs>
<linearGradient id="paint0_linear_100_11222" x1="26.6015" y1="32.8808" x2="26.6015" y2="10.8005" gradientUnits="userSpaceOnUse">
<stop offset="0.438" stop-color="#D4313E"/>
<stop offset="0.5709" stop-color="#E2455C"/>
</linearGradient>
</defs>
</svg>
