<svg width="36" height="36" viewBox="0 0 36 36" fill="none" xmlns="http://www.w3.org/2000/svg">
<path opacity="0.5" d="M19.1924 3H16.1924C13.364 3 11.9497 3 11.0711 3.87868C10.1924 4.75736 10.1924 6.17157 10.1924 9V12V14.25H25.1924V12V9C25.1924 6.17157 25.1924 4.75736 24.3137 3.87868C23.435 3 22.0208 3 19.1924 3Z" fill="white"/>
<path fill-rule="evenodd" clip-rule="evenodd" d="M19.8456 8.67466C18.5028 7.94243 16.8799 7.94243 15.5371 8.67466L8.34571 12.5959C6.89973 13.3844 6 14.8998 6 16.5467V23.9532C6 25.6002 6.89973 27.1156 8.34571 27.904L15.5371 31.8253C16.8799 32.5575 18.5028 32.5575 19.8456 31.8253L27.037 27.904C28.483 27.1156 29.3827 25.6002 29.3827 23.9532V16.5467C29.3827 14.8998 28.483 13.3844 27.037 12.5959L19.8456 8.67466ZM17.6917 15.75C17.2656 15.75 16.9806 16.2613 16.4106 17.2838L16.2631 17.5483C16.1011 17.8389 16.0201 17.9842 15.8939 18.08C15.7676 18.1759 15.6103 18.2115 15.2958 18.2826L15.0094 18.3474C13.9026 18.5978 13.3492 18.7231 13.2175 19.1465C13.0858 19.5699 13.4631 20.0111 14.2177 20.8935L14.4129 21.1217C14.6273 21.3725 14.7346 21.4979 14.7828 21.653C14.831 21.8081 14.8148 21.9754 14.7824 22.3099L14.7529 22.6145C14.6388 23.7918 14.5818 24.3804 14.9265 24.6421C15.2712 24.9038 15.7894 24.6652 16.8257 24.188L17.0938 24.0646C17.3883 23.929 17.5356 23.8612 17.6917 23.8612C17.8477 23.8612 17.995 23.929 18.2895 24.0646L18.5576 24.188C19.5939 24.6652 20.1121 24.9038 20.4568 24.6421C20.8015 24.3804 20.7445 23.7918 20.6304 22.6145L20.6009 22.3099C20.5685 21.9754 20.5523 21.8081 20.6005 21.653C20.6487 21.4979 20.756 21.3725 20.9704 21.1218L21.1656 20.8935C21.9202 20.0111 22.2975 19.5699 22.1658 19.1465C22.0341 18.7231 21.4807 18.5978 20.3739 18.3474L20.0875 18.2826C19.773 18.2115 19.6157 18.1759 19.4894 18.08C19.3632 17.9842 19.2822 17.8389 19.1202 17.5483L18.9727 17.2838C18.4027 16.2613 18.1177 15.75 17.6917 15.75Z" fill="white"/>
</svg>
