<svg width="48" height="48" viewBox="0 0 48 48" fill="none" xmlns="http://www.w3.org/2000/svg">
<rect width="48" height="48" rx="12" fill="#F1C40F"/>
<path opacity="0.5" d="M25.1924 9H22.1924C19.364 9 17.9497 9 17.0711 9.87868C16.1924 10.7574 16.1924 12.1716 16.1924 15V18V20.25H31.1924V18V15C31.1924 12.1716 31.1924 10.7574 30.3137 9.87868C29.435 9 28.0208 9 25.1924 9Z" fill="white"/>
<path fill-rule="evenodd" clip-rule="evenodd" d="M25.8456 14.6747C24.5028 13.9424 22.8799 13.9424 21.5371 14.6747L14.3457 18.5959C12.8997 19.3844 12 20.8998 12 22.5467V29.9532C12 31.6002 12.8997 33.1156 14.3457 33.904L21.5371 37.8253C22.8799 38.5575 24.5028 38.5575 25.8456 37.8253L33.037 33.904C34.483 33.1156 35.3827 31.6002 35.3827 29.9532V22.5467C35.3827 20.8998 34.483 19.3844 33.037 18.5959L25.8456 14.6747ZM23.6917 21.75C23.2656 21.75 22.9806 22.2613 22.4106 23.2838L22.2631 23.5483C22.1011 23.8389 22.0201 23.9842 21.8939 24.08C21.7676 24.1759 21.6103 24.2115 21.2958 24.2826L21.0094 24.3474C19.9026 24.5978 19.3492 24.7231 19.2175 25.1465C19.0858 25.5699 19.4631 26.0111 20.2177 26.8935L20.4129 27.1217C20.6273 27.3725 20.7346 27.4979 20.7828 27.653C20.831 27.8081 20.8148 27.9754 20.7824 28.3099L20.7529 28.6145C20.6388 29.7918 20.5818 30.3804 20.9265 30.6421C21.2712 30.9038 21.7894 30.6652 22.8257 30.188L23.0938 30.0646C23.3883 29.929 23.5356 29.8612 23.6917 29.8612C23.8477 29.8612 23.995 29.929 24.2895 30.0646L24.5576 30.188C25.5939 30.6652 26.1121 30.9038 26.4568 30.6421C26.8015 30.3804 26.7445 29.7918 26.6304 28.6145L26.6009 28.3099C26.5685 27.9754 26.5523 27.8081 26.6005 27.653C26.6487 27.4979 26.756 27.3725 26.9704 27.1218L27.1656 26.8935C27.9202 26.0111 28.2975 25.5699 28.1658 25.1465C28.0341 24.7231 27.4807 24.5978 26.3739 24.3474L26.0875 24.2826C25.773 24.2115 25.6157 24.1759 25.4894 24.08C25.3632 23.9842 25.2822 23.8389 25.1202 23.5483L24.9727 23.2838C24.4027 22.2613 24.1177 21.75 23.6917 21.75Z" fill="white"/>
</svg>
