<svg width="34" height="34" viewBox="0 0 34 34" fill="none" xmlns="http://www.w3.org/2000/svg">
<path opacity="0.5" d="M4.25 14.1666C4.25 8.824 4.25 6.15271 5.90973 4.49298C7.56946 2.83325 10.2407 2.83325 15.5833 2.83325H18.4167C23.7593 2.83325 26.4305 2.83325 28.0903 4.49298C29.75 6.15271 29.75 8.824 29.75 14.1666V19.8333C29.75 25.1758 29.75 27.8471 28.0903 29.5069C26.4305 31.1666 23.7593 31.1666 18.4167 31.1666H15.5833C10.2407 31.1666 7.56946 31.1666 5.90973 29.5069C4.25 27.8471 4.25 25.1758 4.25 19.8333V14.1666Z" fill="#D35400"/>
<path d="M23.4018 23.3769C23.6497 23.1836 23.8745 22.9587 24.3242 22.509L29.9306 16.9027C30.0661 16.7671 30.0041 16.5337 29.823 16.4709C29.1612 16.2413 28.3004 15.8102 27.4951 15.005C26.6899 14.1997 26.2588 13.3389 26.0292 12.6771C25.9664 12.496 25.7329 12.434 25.5974 12.5695L19.9911 18.1758C19.5414 18.6255 19.3165 18.8504 19.1231 19.0983C18.895 19.3908 18.6995 19.7072 18.5399 20.042C18.4046 20.3259 18.3041 20.6275 18.103 21.2309L17.8431 22.0105L17.4299 23.2501L17.0424 24.4125C16.9435 24.7094 17.0207 25.0367 17.242 25.258C17.4633 25.4794 17.7907 25.5566 18.0876 25.4577L19.2499 25.0702L20.4896 24.657L21.2692 24.3971C21.8725 24.196 22.1742 24.0955 22.458 23.9602C22.7929 23.8006 23.1093 23.605 23.4018 23.3769Z" fill="#D35400"/>
<path d="M31.6859 15.1473C32.8825 13.9508 32.8825 12.0107 31.6859 10.8142C30.4893 9.61761 28.5493 9.61761 27.3527 10.8142L27.1725 10.9944C26.9986 11.1683 26.9198 11.4113 26.9632 11.6534C26.9906 11.8057 27.0412 12.0283 27.1334 12.294C27.3177 12.8254 27.6659 13.5229 28.3216 14.1785C28.9772 14.8342 29.6747 15.1823 30.2061 15.3667C30.4717 15.4589 30.6944 15.5095 30.8467 15.5369C31.0888 15.5803 31.3317 15.5015 31.5057 15.3276L31.6859 15.1473Z" fill="#D35400"/>
<path fill-rule="evenodd" clip-rule="evenodd" d="M10.2705 12.75C10.2705 12.1632 10.7462 11.6875 11.333 11.6875H20.5413C21.1281 11.6875 21.6038 12.1632 21.6038 12.75C21.6038 13.3368 21.1281 13.8125 20.5413 13.8125H11.333C10.7462 13.8125 10.2705 13.3368 10.2705 12.75ZM10.2705 18.4167C10.2705 17.8299 10.7462 17.3542 11.333 17.3542H15.583C16.1698 17.3542 16.6455 17.8299 16.6455 18.4167C16.6455 19.0035 16.1698 19.4792 15.583 19.4792H11.333C10.7462 19.4792 10.2705 19.0035 10.2705 18.4167ZM10.2705 24.0833C10.2705 23.4965 10.7462 23.0208 11.333 23.0208H13.458C14.0448 23.0208 14.5205 23.4965 14.5205 24.0833C14.5205 24.6701 14.0448 25.1458 13.458 25.1458H11.333C10.7462 25.1458 10.2705 24.6701 10.2705 24.0833Z" fill="#D35400"/>
</svg>
