<svg width="48" height="48" viewBox="0 0 48 48" fill="none" xmlns="http://www.w3.org/2000/svg">
<rect width="48" height="48" rx="12" fill="#D35400"/>
<path opacity="0.5" d="M11.25 21.1666C11.25 15.824 11.25 13.1527 12.9097 11.493C14.5695 9.83325 17.2407 9.83325 22.5833 9.83325H25.4167C30.7593 9.83325 33.4305 9.83325 35.0903 11.493C36.75 13.1527 36.75 15.824 36.75 21.1666V26.8333C36.75 32.1758 36.75 34.8471 35.0903 36.5069C33.4305 38.1666 30.7593 38.1666 25.4167 38.1666H22.5833C17.2407 38.1666 14.5695 38.1666 12.9097 36.5069C11.25 34.8471 11.25 32.1758 11.25 26.8333V21.1666Z" fill="white"/>
<path d="M30.4018 30.3769C30.6497 30.1836 30.8745 29.9587 31.3242 29.509L36.9306 23.9027C37.0661 23.7671 37.0041 23.5337 36.823 23.4709C36.1612 23.2413 35.3004 22.8102 34.4951 22.005C33.6899 21.1997 33.2588 20.3389 33.0292 19.6771C32.9664 19.496 32.7329 19.434 32.5974 19.5695L26.9911 25.1758C26.5414 25.6255 26.3165 25.8504 26.1231 26.0983C25.895 26.3908 25.6995 26.7072 25.5399 27.042C25.4046 27.3259 25.3041 27.6275 25.103 28.2309L24.8431 29.0105L24.4299 30.2501L24.0424 31.4125C23.9435 31.7094 24.0207 32.0367 24.242 32.258C24.4633 32.4794 24.7907 32.5566 25.0876 32.4577L26.2499 32.0702L27.4896 31.657L28.2692 31.3971C28.8725 31.196 29.1742 31.0955 29.458 30.9602C29.7929 30.8006 30.1093 30.605 30.4018 30.3769Z" fill="white"/>
<path d="M38.6859 22.1473C39.8825 20.9508 39.8825 19.0107 38.6859 17.8142C37.4893 16.6176 35.5493 16.6176 34.3527 17.8142L34.1725 17.9944C33.9986 18.1683 33.9198 18.4113 33.9632 18.6534C33.9906 18.8057 34.0412 19.0283 34.1334 19.294C34.3177 19.8254 34.6659 20.5229 35.3216 21.1785C35.9772 21.8342 36.6747 22.1823 37.2061 22.3667C37.4717 22.4589 37.6944 22.5095 37.8467 22.5369C38.0888 22.5803 38.3317 22.5015 38.5057 22.3276L38.6859 22.1473Z" fill="white"/>
<path fill-rule="evenodd" clip-rule="evenodd" d="M17.2705 19.75C17.2705 19.1632 17.7462 18.6875 18.333 18.6875H27.5413C28.1281 18.6875 28.6038 19.1632 28.6038 19.75C28.6038 20.3368 28.1281 20.8125 27.5413 20.8125H18.333C17.7462 20.8125 17.2705 20.3368 17.2705 19.75ZM17.2705 25.4167C17.2705 24.8299 17.7462 24.3542 18.333 24.3542H22.583C23.1698 24.3542 23.6455 24.8299 23.6455 25.4167C23.6455 26.0035 23.1698 26.4792 22.583 26.4792H18.333C17.7462 26.4792 17.2705 26.0035 17.2705 25.4167ZM17.2705 31.0833C17.2705 30.4965 17.7462 30.0208 18.333 30.0208H20.458C21.0448 30.0208 21.5205 30.4965 21.5205 31.0833C21.5205 31.6701 21.0448 32.1458 20.458 32.1458H18.333C17.7462 32.1458 17.2705 31.6701 17.2705 31.0833Z" fill="white"/>
</svg>
