<svg width="48" height="48" viewBox="0 0 48 48" fill="none" xmlns="http://www.w3.org/2000/svg">
<rect width="48" height="48" rx="12" fill="#E74C3C"/>
<path d="M29.25 17.25C29.25 20.1495 26.8995 22.5 24 22.5C21.1005 22.5 18.75 20.1495 18.75 17.25C18.75 14.3505 21.1005 12 24 12C26.8995 12 29.25 14.3505 29.25 17.25Z" fill="white"/>
<path opacity="0.4" d="M35.25 17.25C35.25 19.3211 33.5711 21 31.5 21C29.4289 21 27.75 19.3211 27.75 17.25C27.75 15.1789 29.4289 13.5 31.5 13.5C33.5711 13.5 35.25 15.1789 35.25 17.25Z" fill="white"/>
<path opacity="0.4" d="M12.75 17.25C12.75 19.3211 14.4289 21 16.5 21C18.5711 21 20.25 19.3211 20.25 17.25C20.25 15.1789 18.5711 13.5 16.5 13.5C14.4289 13.5 12.75 15.1789 12.75 17.25Z" fill="white"/>
<path d="M33 30.75C33 33.6495 28.9706 36 24 36C19.0294 36 15 33.6495 15 30.75C15 27.8505 19.0294 25.5 24 25.5C28.9706 25.5 33 27.8505 33 30.75Z" fill="white"/>
<path opacity="0.4" d="M39 30.75C39 32.8211 36.3137 34.5 33 34.5C29.6863 34.5 27 32.8211 27 30.75C27 28.6789 29.6863 27 33 27C36.3137 27 39 28.6789 39 30.75Z" fill="white"/>
<path opacity="0.4" d="M9 30.75C9 32.8211 11.6863 34.5 15 34.5C18.3137 34.5 21 32.8211 21 30.75C21 28.6789 18.3137 27 15 27C11.6863 27 9 28.6789 9 30.75Z" fill="white"/>
</svg>
