<svg width="145" height="48" viewBox="0 0 145 48" fill="none" xmlns="http://www.w3.org/2000/svg">
<rect x="0.799805" y="0.000244141" width="144" height="48" rx="7" fill="#141414"/>
<path d="M74.9592 17.4326C72.9881 17.4379 71.394 19.0391 71.3976 21.0102C71.4011 22.9812 73.0009 24.5767 74.972 24.575C76.943 24.5732 78.54 22.9749 78.54 21.0038C78.5558 20.0502 78.1833 19.1312 77.508 18.4577C76.8327 17.7842 75.9127 17.4142 74.9592 17.4326ZM75.1704 23.1926C74.2807 23.2557 73.4431 22.768 73.0588 21.9631C72.6746 21.1582 72.8221 20.2001 73.4307 19.5481C74.0393 18.896 74.9849 18.6829 75.8143 19.0107C76.6438 19.3386 77.1881 20.1407 77.1864 21.0326C77.2045 21.5833 77.0016 22.1184 76.6229 22.5187C76.2443 22.919 75.7213 23.1513 75.1704 23.1638V23.1926ZM67.1448 17.4326C65.1737 17.4379 63.5796 19.0391 63.5832 21.0102C63.5867 22.9812 65.1865 24.5767 67.1576 24.575C69.1286 24.5732 70.7256 22.9749 70.7256 21.0038C70.7413 20.0519 70.3701 19.1344 69.6969 18.4612C69.0238 17.788 68.1062 17.4169 67.1544 17.4326H67.1448ZM67.3663 23.1926C66.469 23.2557 65.6242 22.768 65.2367 21.9631C64.8491 21.1582 64.9979 20.2001 65.6117 19.5481C66.2255 18.896 67.1792 18.6829 68.0158 19.0107C68.8524 19.3386 69.4014 20.1407 69.3996 21.0326C69.4179 21.5817 69.2146 22.1153 68.8348 22.5154C68.4549 22.9154 67.9299 23.1488 67.376 23.1638L67.3663 23.1926ZM57.8424 18.527V20.0438H61.4712C61.4203 20.7586 61.1294 21.4352 60.6456 21.9638C59.8998 22.693 58.8842 23.0791 57.8424 23.0294C55.6946 22.9245 54.007 21.1525 54.007 19.0022C54.007 16.8518 55.6946 15.0799 57.8424 14.975C58.8609 14.9563 59.8451 15.3431 60.5784 16.0502L61.644 14.9846C60.6239 13.9762 59.238 13.4253 57.804 13.4582C55.7683 13.3735 53.8498 14.4112 52.8067 16.1614C51.7636 17.9116 51.7636 20.0927 52.8067 21.843C53.8498 23.5932 55.7683 24.6309 57.804 24.5462C59.2466 24.596 60.6425 24.0306 61.644 22.991C62.5444 22.0443 63.0403 20.7838 63.0264 19.4774C63.0309 19.1553 63.002 18.8335 62.94 18.5174L57.8424 18.527ZM95.868 19.7078C95.4267 18.3853 94.2086 17.4774 92.8152 17.4326C91.8881 17.4392 91.004 17.8243 90.3678 18.4987C89.7315 19.173 89.3984 20.0779 89.4456 21.0038C89.4246 21.9522 89.7902 22.8683 90.4582 23.5418C91.1263 24.2153 92.0394 24.5883 92.988 24.575C94.1714 24.5817 95.2817 24.0031 95.9544 23.0294L94.7352 22.2134C94.3583 22.8192 93.6917 23.1834 92.9784 23.1734C92.2367 23.2022 91.5522 22.7763 91.2504 22.0982L96.0504 20.1206L95.868 19.7078ZM91.0008 20.8982C90.9556 20.3712 91.1299 19.849 91.4824 19.4547C91.8349 19.0603 92.3344 18.8289 92.8632 18.815C93.4176 18.7763 93.9406 19.0757 94.188 19.5734L91.0008 20.8982ZM87.1608 24.3542H88.7256V13.8614H87.1224L87.1608 24.3542ZM84.5496 18.2294H84.492C83.9998 17.6951 83.2978 17.4038 82.572 17.4326C80.5996 17.4326 79.0008 19.0315 79.0008 21.0038C79.0008 22.9761 80.5996 24.575 82.572 24.575C83.3024 24.6071 84.0082 24.3071 84.492 23.759H84.5496V24.2774C84.5496 25.6406 83.82 26.3702 82.6296 26.3702C81.8281 26.3484 81.1174 25.8494 80.8248 25.103L79.4616 25.6694C79.9922 26.9489 81.2444 27.7799 82.6296 27.7718C84.4632 27.7718 86.0184 26.6966 86.0184 24.0566V17.6534H84.5496V18.2294ZM82.6813 23.1638C81.433 23.0586 80.4792 22.123 80.4792 21.0038C80.4792 19.8845 81.433 18.949 82.6813 18.8438C83.8938 18.9884 84.7992 19.9118 84.7992 21.0038C84.7992 22.0958 83.8938 23.0192 82.6813 23.1638ZM103.212 13.8614H99.4584V24.3542H101.023V20.3798H103.212C104.419 20.4453 105.563 19.8388 106.186 18.8034C106.809 17.768 106.809 16.4731 106.186 15.4378C105.563 14.4024 104.419 13.7959 103.212 13.8614ZM103.212 18.9206H100.985V15.3494H103.212C103.853 15.3494 104.446 15.6916 104.767 16.247C105.087 16.8024 105.087 17.4868 104.767 18.0422C104.446 18.5976 103.853 18.9398 103.212 18.9398V18.9206ZM112.889 17.4134C111.722 17.3467 110.626 17.9756 110.095 19.0166L111.487 19.6022C111.766 19.082 112.33 18.7795 112.918 18.8342C113.314 18.794 113.709 18.9132 114.017 19.1654C114.325 19.4176 114.52 19.782 114.559 20.1782V20.2934C114.059 20.0207 113.497 19.8787 112.927 19.8806C111.43 19.8806 109.903 20.7062 109.903 22.2422C109.932 22.899 110.227 23.5159 110.719 23.9519C111.211 24.3879 111.859 24.6058 112.514 24.5558C113.317 24.6027 114.082 24.2091 114.511 23.5286V24.335H116.114V20.3126C116.114 18.4502 114.722 17.4134 112.927 17.4134H112.889ZM112.697 23.1734C112.188 23.1734 111.478 22.9142 111.478 22.2806C111.478 21.4742 112.361 21.167 113.129 21.167C113.628 21.1513 114.122 21.2707 114.559 21.5126C114.43 22.4314 113.662 23.1264 112.735 23.1638L112.697 23.1734ZM121.577 17.6534L119.782 22.2038H119.734L117.871 17.6534H116.182L118.994 23.9894L117.401 27.5318H119.033L123.343 17.6342L121.577 17.6534ZM107.474 24.3734H109.039V13.8614H107.474V24.3734Z" fill="white"/>
<path d="M22.8411 12.3928C22.5282 12.7682 22.3703 13.2489 22.3995 13.7368V34.972C22.3678 35.4631 22.5259 35.9476 22.8411 36.3256L22.9083 36.3928L34.8027 24.4984V24.22L22.9083 12.3256L22.8411 12.3928Z" fill="url(#paint0_linear_100_11202)"/>
<path d="M38.7675 28.4629L34.8027 24.4981V24.2197L38.7675 20.2549H38.8635L43.5579 22.9237C44.9019 23.6821 44.9019 24.9301 43.5579 25.6981L38.8635 28.3669L38.7675 28.4629Z" fill="url(#paint1_linear_100_11202)"/>
<path d="M38.8632 28.4154L34.8024 24.3546L22.8408 36.3258C23.4089 36.8152 24.2423 36.8392 24.8376 36.3834L38.8632 28.4154Z" fill="url(#paint2_linear_100_11202)"/>
<path d="M38.8632 20.3031L24.8376 12.3351C24.246 11.8678 23.4045 11.892 22.8408 12.3927L34.8024 24.3543L38.8632 20.3031Z" fill="url(#paint3_linear_100_11202)"/>
<path opacity="0.2" d="M38.7674 28.3195L24.8378 36.2395C24.2675 36.6619 23.4881 36.6619 22.9178 36.2395L22.8506 36.3163L22.9178 36.3835C23.4881 36.8059 24.2675 36.8059 24.8378 36.3835L38.8634 28.4155L38.7674 28.3195Z" fill="black"/>
<path opacity="0.12" d="M22.8411 36.181C22.5259 35.8031 22.3678 35.3185 22.3995 34.8274V34.9714C22.3678 35.4625 22.5259 35.9471 22.8411 36.325L22.9083 36.2482L22.8411 36.181Z" fill="black"/>
<path opacity="0.12" d="M43.5578 25.6026L38.7578 28.3194L38.8538 28.4154L43.5482 25.7466C44.0941 25.4876 44.4601 24.9569 44.5082 24.3546C44.3995 24.8943 44.0492 25.3544 43.5578 25.6026Z" fill="black"/>
<path opacity="0.25" d="M24.8378 12.4698L43.5578 23.1066C44.0511 23.3548 44.4044 23.8142 44.5178 24.3546C44.4664 23.7559 44.1009 23.2295 43.5578 22.9722L24.8378 12.3354C23.4938 11.5674 22.3994 12.201 22.3994 13.737V13.881C22.3994 12.345 23.4938 11.7114 24.8378 12.4698Z" fill="white"/>
<path d="M52.9648 32.8599H52.2832V31.0071H52.9648V32.8599Z" fill="white" stroke="white" stroke-width="0.2"/>
<path d="M54.1855 36.8536V31.0072H55.9711C56.7734 30.966 57.5565 31.2619 58.1311 31.8232C59.0662 32.6461 59.3662 33.9769 58.8747 35.1214C58.3833 36.266 57.2118 36.9649 55.9711 36.8536H54.1855ZM54.9343 36.1336H55.9711C56.8672 36.1063 57.6645 35.5574 58.0099 34.7301C58.3553 33.9028 58.185 32.95 57.5743 32.2936C57.1436 31.8856 56.5634 31.6737 55.9711 31.708H54.9343V36.1336Z" fill="white" stroke="white" stroke-width="0.2"/>
<path d="M63.3904 31.7269H60.7312V33.5893H63.1312V34.2901H60.7312V36.1429H63.3904V36.8629H59.9824V31.0165H63.3904V31.7269Z" fill="white" stroke="white" stroke-width="0.2"/>
<path d="M64.457 36.8535V31.0071H65.417L68.249 35.5575V34.4343V31.0071H69.0074V36.8535H68.2202L65.2538 32.0535V33.1767V36.8151L64.457 36.8535Z" fill="white" stroke="white" stroke-width="0.2"/>
<path d="M71.4463 36.8535L73.6543 31.0071H74.4991L76.6975 36.8535H75.8719L75.3055 35.2695H72.8479L72.2815 36.8535H71.4463ZM73.1071 34.5495H75.0271L74.0671 31.9095L73.1071 34.5495Z" fill="white" stroke="white" stroke-width="0.2"/>
<path d="M77.4648 36.8535V31.0071H78.2136V36.1335H80.748V36.8535H77.4648Z" fill="white" stroke="white" stroke-width="0.2"/>
<path d="M81.5547 36.8535V31.0071H82.3035V36.8535H81.5547Z" fill="white" stroke="white" stroke-width="0.2"/>
<path d="M83.6572 36.8535V31.0071H84.6172L87.4972 35.5575V34.4343V31.0071H88.246V36.8535H87.4588L84.4924 32.0535V33.1767V36.8151L83.6572 36.8535Z" fill="white" stroke="white" stroke-width="0.2"/>
<defs>
<linearGradient id="paint0_linear_100_11202" x1="29.9672" y1="13.516" x2="19.7722" y2="23.7109" gradientUnits="userSpaceOnUse">
<stop stop-color="#00A0FF"/>
<stop offset="0.01" stop-color="#00A1FF"/>
<stop offset="0.26" stop-color="#00BEFF"/>
<stop offset="0.51" stop-color="#00D2FF"/>
<stop offset="0.76" stop-color="#00DFFF"/>
<stop offset="1" stop-color="#00E3FF"/>
</linearGradient>
<linearGradient id="paint1_linear_100_11202" x1="45.3051" y1="24.3541" x2="22.0731" y2="24.3541" gradientUnits="userSpaceOnUse">
<stop stop-color="#FFE000"/>
<stop offset="0.41" stop-color="#FFBD00"/>
<stop offset="0.78" stop-color="#FFA500"/>
<stop offset="1" stop-color="#FF9C00"/>
</linearGradient>
<linearGradient id="paint2_linear_100_11202" x1="36.6552" y1="28.1718" x2="19.2343" y2="45.5927" gradientUnits="userSpaceOnUse">
<stop stop-color="#FF3A44"/>
<stop offset="1" stop-color="#C31162"/>
</linearGradient>
<linearGradient id="paint3_linear_100_11202" x1="19.8264" y1="10.5376" x2="27.6025" y2="18.3138" gradientUnits="userSpaceOnUse">
<stop stop-color="#32A071"/>
<stop offset="0.07" stop-color="#2DA771"/>
<stop offset="0.48" stop-color="#15CF74"/>
<stop offset="0.8" stop-color="#06E775"/>
<stop offset="1" stop-color="#00F076"/>
</linearGradient>
</defs>
</svg>
