<svg width="437" height="56" viewBox="0 0 437 56" fill="none" xmlns="http://www.w3.org/2000/svg">
<path d="M341.875 2.30432C339.347 2.31981 336.818 2.34291 334.29 2.38313C325.107 2.55209 315.924 2.78679 306.765 3.4045C301.528 3.72326 296.289 4.03607 291.044 4.26014C285.407 4.50105 285.017 4.45992 279.273 4.63999C277.251 4.70262 275.23 4.77974 273.209 4.84952C261.968 5.29342 250.735 5.98914 239.481 6.07813C227.808 6.15563 216.134 6.20074 204.464 6.08163C192.422 5.95762 180.379 5.83312 168.339 5.64352C154.435 5.54387 140.527 5.56109 126.62 5.81181C113.777 6.12405 100.931 6.46389 88.1128 7.23661C77.5691 7.77688 67.0313 8.37373 56.4973 9.02705C53.6038 9.21313 50.7099 9.40061 47.8064 9.33776C42.2472 9.38447 40.4649 13.3469 42.4632 15.8558C39.3138 15.8498 36.1646 15.8315 33.0155 15.8114C28.0087 15.7791 23.0015 15.7823 17.994 15.7811C12.7136 15.8253 10.8621 19.4 12.4053 21.9071C6.91382 23.1238 7.01565 28.4323 11.5255 29.86C11.2591 30.4315 11.1657 31.0363 11.2241 31.6353C10.7589 31.6283 10.2939 31.6201 9.82872 31.6161C8.95827 31.6118 8.0879 31.6089 7.21775 31.5964C-0.807392 31.5861 -1.10857 39.8135 6.62506 40.1164C5.91587 42.2021 5.01665 44.2829 5.25609 46.3908C5.33914 47.1222 7.15113 46.8355 8.13044 46.9562C9.27348 47.0972 13.0246 47.0304 13.8816 47.0077C16.5657 46.9359 19.3718 46.7785 22.092 46.6274C23.5779 46.6102 25.064 46.5973 26.5497 46.5759C22.4216 48.7292 23.6578 54.3302 30.282 54.2747C35.8238 54.1584 41.3664 54.0907 46.9086 54.0712C48.5211 54.0708 50.1335 54.0761 51.7461 54.0716C60.285 54.047 55.7242 54.0087 64.8849 54.0709C72.0546 54.1198 79.2209 54.2431 86.3887 54.3409C96.1885 54.3753 106.002 54.2681 115.795 53.8363C120.33 53.6355 126.39 53.2512 130.917 52.9773C144.262 52.165 157.611 51.3971 170.947 50.4976C174.581 50.2375 178.22 50.0476 181.86 49.8826C190.553 50.103 199.247 50.2983 207.94 50.5201C211.759 50.5634 216.907 50.6315 220.691 50.6363C230.17 50.6483 239.648 50.3653 249.125 50.1465C262.482 49.7914 275.84 49.3538 289.201 49.2087C295.709 49.2307 302.216 49.257 308.723 49.3108C309.531 49.3212 310.338 49.3316 311.145 49.3422C311.769 49.4682 312.445 49.6504 312.68 49.3645C315.817 49.4282 317.39 49.6597 317.05 47.1484C325.373 47.0118 333.698 46.8908 342.022 46.8824C344.594 46.9351 347.167 46.9882 349.739 47.0515C356.72 47.2662 363.691 47.6245 370.666 47.9134C375.256 48.096 379.852 48.2135 384.451 48.2605C385.44 48.2903 385.815 48.289 391.215 48.385C392.573 48.4093 393.931 48.4456 395.289 48.471C396.137 48.487 397.591 49.1111 397.832 48.5084L397.833 48.5067C400.227 48.9202 400.13 48.7364 399.051 45.5764C399.095 45.4741 399.124 45.407 399.167 45.3082C401.66 45.3506 404.152 45.3964 406.646 45.4209C406.934 45.4246 410.353 45.4476 410.808 45.4446C415.937 45.4093 418.385 45.2798 417.194 38.0426C418.875 38.0573 419.752 38.0817 419.996 37.6117C420.566 37.5431 421.137 37.4777 421.705 37.4037C422.635 37.2827 423.546 37.0931 424.467 36.938C425.717 36.2473 427.849 35.9822 428.215 34.8658C429.042 32.3452 428.707 30.7893 427.599 29.7169C430.743 28.9883 432.032 26.7172 431.481 24.7343C437.779 23.5339 437.203 16.3404 429.712 16.3994C427.713 16.4213 425.713 16.4367 423.713 16.4494C421.557 16.4619 419.4 16.4742 417.243 16.4923C417.239 16.3978 417.233 16.3098 417.231 16.2126C418.519 16.0964 419.569 15.7531 420.383 15.2669C421.976 15.751 423.949 15.696 425.988 14.7214C425.318 11.9936 425.033 9.19499 423.977 6.53798C423.86 6.24384 423.145 6.51606 422.729 6.51509C420.746 6.50892 418.759 6.58378 416.776 6.57649C412.849 6.61966 408.922 6.65935 404.995 6.69514C405.347 4.40742 403.345 1.94581 398.941 1.98438L396.88 2.01169C394.035 2.05267 391.19 2.07672 388.346 2.11661C380.442 2.21704 372.539 2.28841 364.636 2.29367C357.05 2.30264 349.465 2.26327 341.879 2.30808L341.875 2.30432ZM137.15 13.8634C145.491 13.7823 153.831 13.7857 162.17 13.8343C161.201 13.9071 160.191 13.9909 159.298 14.0473C153.437 14.4153 147.559 14.5279 141.686 14.5255C134.31 14.5835 126.935 14.6643 119.559 14.7147C113.665 14.7547 107.772 14.7927 101.878 14.8368C110.194 14.4775 118.515 14.207 126.839 14.0073C130.275 13.9454 133.713 13.8974 137.15 13.8634ZM398.029 16.3698C401.124 16.3513 404.219 16.3274 407.313 16.3073C408.257 16.3038 409.2 16.2973 410.144 16.2893C404.954 16.6648 399.763 17.0396 394.57 17.3842C390.529 17.424 386.489 17.4593 382.448 17.519C377.301 17.5915 372.153 17.6697 367.006 17.7554C370.461 17.6057 373.906 17.3442 377.348 17.0525C380.774 16.7321 384.217 16.5783 387.662 16.4918C391.118 16.4249 394.573 16.396 398.029 16.3698ZM419.764 35.8891C419.872 35.9213 419.98 35.9521 420.083 35.9918C420.1 35.998 420.121 36.0373 420.1 36.0327C419.984 36.0005 419.799 35.9955 419.768 35.9062C419.766 35.8997 419.761 35.8955 419.761 35.889L419.764 35.8891ZM8.67926 46.7784C8.67798 46.7849 8.67712 46.7871 8.67585 46.7915C8.53601 46.7896 8.1178 46.7947 8.25743 46.7879C8.39795 46.7836 8.5386 46.7787 8.67922 46.7762L8.67926 46.7784Z" fill="#AD2317"/>
</svg>
