<svg width="48" height="48" viewBox="0 0 48 48" fill="none" xmlns="http://www.w3.org/2000/svg">
<rect width="48" height="48" rx="12" fill="#3498DB"/>
<path fill-rule="evenodd" clip-rule="evenodd" d="M26.2619 29.836L34.0577 22.0636C35.1804 20.9442 35.7418 20.3846 36.0375 19.6729C36.3331 18.9612 36.3331 18.1697 36.3331 16.5867V15.8304C36.3331 13.3963 36.3331 12.1792 35.5747 11.423C34.8162 10.6667 33.5954 10.6667 31.1539 10.6667H30.3954C28.8077 10.6667 28.0138 10.6667 27.2999 10.9615C26.5861 11.2563 26.0247 11.816 24.902 12.9354L17.1062 20.7078C15.7943 22.0157 14.9809 22.8267 14.6659 23.6101C14.5664 23.8576 14.5166 24.1023 14.5166 24.3591C14.5166 25.4285 15.3798 26.2891 17.1062 28.0104L17.3382 28.2417L20.0563 25.4831C20.4439 25.0897 21.077 25.085 21.4704 25.4727C21.8639 25.8603 21.8685 26.4934 21.4809 26.8868L18.7546 29.6538L18.9374 29.836C20.6638 31.5572 21.527 32.4179 22.5996 32.4179C22.8366 32.4179 23.0634 32.3758 23.2915 32.2918C24.0959 31.9955 24.9169 31.1769 26.2619 29.836ZM29.9243 20.7084C28.913 21.7166 27.2734 21.7166 26.2621 20.7084C25.2508 19.7001 25.2508 18.0653 26.2621 17.0571C27.2734 16.0488 28.913 16.0488 29.9243 17.0571C30.9356 18.0653 30.9356 19.7001 29.9243 20.7084Z" fill="white"/>
<g opacity="0.5">
<path d="M19.046 15.9507L15.6552 19.3314C15.0319 19.9528 14.4602 20.5228 14.0086 21.0381C13.7187 21.369 13.4289 21.7312 13.1835 22.1313L13.1504 22.0984C13.0877 22.0359 13.0563 22.0046 13.0248 21.974C12.4355 21.4022 11.7422 20.9475 10.9821 20.6343C10.9415 20.6176 10.9003 20.6013 10.8179 20.5686L10.313 20.3686C9.62904 20.0975 9.44675 19.2171 9.96718 18.6982C11.4608 17.2091 13.2541 15.4213 14.1195 15.0622C14.8828 14.7455 15.7073 14.6401 16.5025 14.7576C17.2311 14.8653 17.9204 15.2396 19.046 15.9507Z" fill="white"/>
<path d="M24.8359 33.7509C25.1092 34.0282 25.2906 34.2241 25.4547 34.4334C25.6711 34.7096 25.8647 35.003 26.0334 35.3106C26.2233 35.6568 26.3708 36.0267 26.6656 36.7664C26.9057 37.3686 27.7032 37.5278 28.1664 37.066L28.2785 36.9543C29.772 35.4651 31.5653 33.6772 31.9254 32.8144C32.2431 32.0534 32.3488 31.2313 32.2309 30.4385C32.1229 29.7122 31.7476 29.0251 31.0345 27.9031L27.6323 31.2951C26.9949 31.9306 26.4105 32.5133 25.8819 32.9698C25.5651 33.2433 25.2186 33.5168 24.8359 33.7509Z" fill="white"/>
</g>
</svg>
