<svg width="36" height="36" viewBox="0 0 36 36" fill="none" xmlns="http://www.w3.org/2000/svg">
<path fill-rule="evenodd" clip-rule="evenodd" d="M21.6705 24.5654L30.4408 15.8214C31.7038 14.5622 32.3354 13.9325 32.668 13.1319C33.0006 12.3312 33.0006 11.4408 33.0006 9.65994V8.80916C33.0006 6.0707 33.0006 4.70146 32.1474 3.85073C31.2941 3 29.9207 3 27.174 3H26.3207C24.5345 3 23.6414 3 22.8383 3.33165C22.0352 3.66329 21.4037 4.29292 20.1406 5.55218L11.3704 14.2962C9.89448 15.7676 8.97935 16.68 8.62498 17.5612C8.51302 17.8397 8.45703 18.115 8.45703 18.4039C8.45703 19.607 9.42814 20.5752 11.3704 22.5116L11.6314 22.7718L14.6892 19.6684C15.1252 19.2258 15.8375 19.2206 16.2801 19.6566C16.7227 20.0927 16.728 20.805 16.2919 21.2476L13.2248 24.3604L13.4304 24.5654C15.3726 26.5018 16.3437 27.47 17.5504 27.47C17.8171 27.47 18.0722 27.4227 18.3288 27.3282C19.2337 26.9949 20.1574 26.0739 21.6705 24.5654ZM25.7907 14.2968C24.653 15.4311 22.8084 15.4311 21.6707 14.2968C20.533 13.1625 20.533 11.3234 21.6707 10.1891C22.8084 9.0548 24.653 9.0548 25.7907 10.1891C26.9284 11.3234 26.9284 13.1625 25.7907 14.2968Z" fill="#3498DB"/>
<g opacity="0.5">
<path d="M13.5514 8.94457L9.73671 12.7478C9.03553 13.4469 8.39232 14.0882 7.88436 14.6678C7.55816 15.0401 7.23218 15.4476 6.95605 15.8978L6.91888 15.8607C6.84833 15.7904 6.81301 15.7551 6.77758 15.7208C6.11454 15.0774 5.33461 14.5659 4.47954 14.2136C4.43384 14.1948 4.38747 14.1764 4.29472 14.1397L3.72674 13.9146C2.9573 13.6097 2.75223 12.6192 3.33771 12.0355C5.01802 10.3603 7.03548 8.34891 8.00911 7.94493C8.86778 7.58866 9.79535 7.47012 10.69 7.60233C11.5097 7.72346 12.2851 8.14452 13.5514 8.94457Z" fill="#3498DB"/>
<path d="M20.065 28.9698C20.3724 29.2817 20.5766 29.5021 20.7611 29.7376C21.0047 30.0483 21.2224 30.3784 21.4122 30.7244C21.6259 31.1139 21.7917 31.53 22.1235 32.3622C22.3935 33.0397 23.2907 33.2188 23.8118 32.6992L23.9379 32.5735C25.6182 30.8983 27.6356 28.8869 28.0408 27.9161C28.3981 27.0601 28.517 26.1353 28.3844 25.2433C28.2629 24.4262 27.8407 23.6532 27.0384 22.391L23.211 26.2069C22.4939 26.9219 21.8364 27.5774 21.2417 28.091C20.8854 28.3988 20.4955 28.7064 20.065 28.9698Z" fill="#3498DB"/>
</g>
</svg>
