<svg width="48" height="48" viewBox="0 0 48 48" fill="none" xmlns="http://www.w3.org/2000/svg">
<rect width="48" height="48" rx="12" fill="#1ABC9C"/>
<path d="M23.9997 38.1666C17.3214 38.1666 13.9823 38.1666 11.9077 36.0919C9.83301 34.0173 9.83301 30.6782 9.83301 23.9999C9.83301 17.3217 9.83301 13.9826 11.9077 11.9079C13.9823 9.83325 17.3214 9.83325 23.9997 9.83325C30.6779 9.83325 34.017 9.83325 36.0917 11.9079C38.1663 13.9826 38.1663 17.3217 38.1663 23.9999C38.1663 30.6782 38.1663 34.0173 36.0917 36.0919C34.017 38.1666 30.6779 38.1666 23.9997 38.1666Z" fill="white"/>
<path d="M16.917 27.1875C17.5038 27.1875 17.9795 27.6632 17.9795 28.25V32.5C17.9795 33.0868 17.5038 33.5625 16.917 33.5625C16.3302 33.5625 15.8545 33.0868 15.8545 32.5V28.25C15.8545 27.6632 16.3302 27.1875 16.917 27.1875Z" fill="#1ABC9C"/>
<path d="M24.0003 22.9375C24.5871 22.9375 25.0628 23.4132 25.0628 24V32.5C25.0628 33.0868 24.5871 33.5625 24.0003 33.5625C23.4135 33.5625 22.9378 33.0868 22.9378 32.5V24C22.9378 23.4132 23.4135 22.9375 24.0003 22.9375Z" fill="#1ABC9C"/>
<path d="M31.0837 18.6875C31.6705 18.6875 32.1462 19.1632 32.1462 19.75V32.5C32.1462 33.0868 31.6705 33.5625 31.0837 33.5625C30.4969 33.5625 30.0212 33.0868 30.0212 32.5V19.75C30.0212 19.1632 30.4969 18.6875 31.0837 18.6875Z" fill="#1ABC9C"/>
</svg>
