<svg width="18" height="16" viewBox="0 0 18 16" fill="none" xmlns="http://www.w3.org/2000/svg">
<path d="M1.125 9C1.74632 9 2.25 9.50368 2.25 10.125V14.625C2.25 15.2463 1.74632 15.75 1.125 15.75C0.50368 15.75 0 15.2463 0 14.625V10.125C0 9.50368 0.50368 9 1.125 9Z" fill="white"/>
<path d="M8.625 4.5C9.24632 4.5 9.75 5.00368 9.75 5.625V14.625C9.75 15.2463 9.24632 15.75 8.625 15.75C8.00368 15.75 7.5 15.2463 7.5 14.625V5.625C7.5 5.00368 8.00368 4.5 8.625 4.5Z" fill="white"/>
<path d="M16.125 0C16.7463 0 17.25 0.50368 17.25 1.125V14.625C17.25 15.2463 16.7463 15.75 16.125 15.75C15.5037 15.75 15 15.2463 15 14.625V1.125C15 0.50368 15.5037 0 16.125 0Z" fill="white"/>
</svg>
