<svg width="26" height="27" viewBox="0 0 26 27" fill="none" xmlns="http://www.w3.org/2000/svg">
<path d="M24.9287 6.3007C23.2692 7.19846 22.5891 7.33448 20.9568 8.25943C20.2223 8.69471 19.8414 8.20503 20.3583 7.52491C21.5281 6.00145 22.8067 5.15811 24.0854 4.55961C24.7383 4.26036 25.5 4.69563 25.5 5.43016C25.5 5.81102 25.2552 6.13748 24.9287 6.3007Z" fill="#FF6175"/>
<path d="M19.4602 5.4033C19.1338 6.19223 18.5625 6.05621 18.5353 5.18567C18.5353 3.28134 19.025 1.81229 19.6779 0.560879C20.0043 -0.0920319 20.8749 -0.200854 21.3101 0.370443C21.5278 0.669694 21.5278 1.07776 21.3918 1.40422C20.63 3.14532 20.1675 3.6622 19.4602 5.4033Z" fill="#FF6175"/>
<path d="M16.0598 6.19248C14.6451 4.91387 13.9106 3.55363 13.4481 2.22061C13.2033 1.54049 13.6929 0.805968 14.4275 0.887582C14.8083 0.914787 15.0804 1.18683 15.2436 1.54049C16.0053 3.25438 16.0597 3.9617 16.8487 5.67559C17.2023 6.46453 16.6855 6.79098 16.0598 6.19248Z" fill="#FF6175"/>
<path d="M2.5436 21.2903C2.65241 21.2631 2.73403 21.1271 2.67962 21.0183C2.13553 19.4404 1.59143 18.2978 2.27155 17.6449C2.78844 17.128 3.84941 17.1552 4.66555 17.264C4.91039 17.2912 5.12803 17.0736 5.07362 16.8288C4.82878 15.6318 4.74717 14.6252 5.34567 14.1083C5.91697 13.5914 7.2772 13.9179 8.31097 14.1899C8.55581 14.2443 8.74625 13.9723 8.58302 13.7818C2.35316 5.45723 1.07454 4.53227 1.26497 3.58011C1.83627 0.75083 11.5755 8.74899 12.4733 9.51072C16.8532 13.2105 19.3016 16.2031 19.3016 16.2031L19.8729 15.4685C20.1994 15.0605 20.5531 14.6524 20.9339 14.2443C21.9949 13.1289 22.9471 12.476 23.1375 12.34H23.1647C23.6272 12.0135 24.2529 11.9863 24.797 12.3128C25.1234 12.5032 25.3683 12.8297 25.4499 13.2106C25.6131 13.8363 25.3683 14.462 24.8514 14.8156L24.3345 15.1693C23.3823 15.931 21.3964 17.8081 20.7435 20.2021C20.5803 20.8278 20.0362 21.2631 19.3833 21.3175C19.3561 21.3175 19.3288 21.3175 19.2744 21.3175C18.5943 21.3175 18.023 20.8823 17.8326 20.2293V20.2021C15.7378 15.7134 9.18152 7.57919 4.71996 4.6683C1.83628 2.79118 2.02671 4.04259 2.51639 4.64109C3.00607 5.2668 4.61115 6.49101 10.9226 14.6796C11.0858 14.8972 11.1131 15.2237 10.9498 15.4685C10.7594 15.7406 10.4057 15.795 10.1337 15.659C9.20873 15.1965 7.57645 14.7068 7.03236 15.1693C6.84193 15.3325 6.51546 15.9038 7.22279 17.9442C7.3044 18.1346 7.2772 18.3522 7.16838 18.5155C7.00515 18.8147 6.65149 18.8963 6.35224 18.7875C5.67213 18.4882 4.47512 18.2706 4.09425 18.6515C3.95823 18.7875 3.60458 19.386 4.47513 21.4808C4.55674 21.6712 4.52953 21.8888 4.42071 22.0793C4.3119 22.2697 4.12146 22.3785 3.90383 22.3785C3.63178 22.4057 2.76123 22.5417 2.5708 23.0314C2.35316 23.4939 2.5708 24.31 4.82878 25.9967C5.64492 26.5952 4.77438 27.357 3.93103 26.8129C2.27155 25.7519 0.530449 23.2491 0.965723 22.2697C1.31938 21.5624 1.9995 21.4263 2.5436 21.2903Z" fill="#21DDB9"/>
</svg>
