<svg width="36" height="36" viewBox="0 0 36 36" fill="none" xmlns="http://www.w3.org/2000/svg">
<path d="M23.25 11.25C23.25 14.1495 20.8995 16.5 18 16.5C15.1005 16.5 12.75 14.1495 12.75 11.25C12.75 8.35051 15.1005 6 18 6C20.8995 6 23.25 8.35051 23.25 11.25Z" fill="#E74C3C"/>
<path opacity="0.4" d="M29.25 11.25C29.25 13.3211 27.5711 15 25.5 15C23.4289 15 21.75 13.3211 21.75 11.25C21.75 9.17893 23.4289 7.5 25.5 7.5C27.5711 7.5 29.25 9.17893 29.25 11.25Z" fill="#E74C3C"/>
<path opacity="0.4" d="M6.75 11.25C6.75 13.3211 8.42893 15 10.5 15C12.5711 15 14.25 13.3211 14.25 11.25C14.25 9.17893 12.5711 7.5 10.5 7.5C8.42893 7.5 6.75 9.17893 6.75 11.25Z" fill="#E74C3C"/>
<path d="M27 24.75C27 27.6495 22.9706 30 18 30C13.0294 30 9 27.6495 9 24.75C9 21.8505 13.0294 19.5 18 19.5C22.9706 19.5 27 21.8505 27 24.75Z" fill="#E74C3C"/>
<path opacity="0.4" d="M33 24.75C33 26.8211 30.3137 28.5 27 28.5C23.6863 28.5 21 26.8211 21 24.75C21 22.6789 23.6863 21 27 21C30.3137 21 33 22.6789 33 24.75Z" fill="#E74C3C"/>
<path opacity="0.4" d="M3 24.75C3 26.8211 5.68629 28.5 9 28.5C12.3137 28.5 15 26.8211 15 24.75C15 22.6789 12.3137 21 9 21C5.68629 21 3 22.6789 3 24.75Z" fill="#E74C3C"/>
</svg>
