<svg width="44" height="44" viewBox="0 0 44 44" fill="none" xmlns="http://www.w3.org/2000/svg">
<path fill-rule="evenodd" clip-rule="evenodd" d="M40.3337 22.0001C40.3337 32.1253 32.1255 40.3334 22.0003 40.3334C11.8751 40.3334 3.66699 32.1253 3.66699 22.0001C3.66699 11.8749 11.8751 3.66675 22.0003 3.66675C32.1255 3.66675 40.3337 11.8749 40.3337 22.0001ZM27.5003 16.5001C27.5003 19.5376 25.0379 22.0001 22.0003 22.0001C18.9628 22.0001 16.5003 19.5376 16.5003 16.5001C16.5003 13.4625 18.9628 11.0001 22.0003 11.0001C25.0379 11.0001 27.5003 13.4625 27.5003 16.5001ZM22.0003 37.5834C25.2711 37.5834 28.3065 36.5758 30.813 34.854C31.9201 34.0935 32.3932 32.6448 31.7496 31.466C30.4152 29.0222 27.6658 27.5001 22.0002 27.5001C16.3348 27.5001 13.5853 29.0222 12.2509 31.4659C11.6072 32.6447 12.0803 34.0933 13.1874 34.8538C15.694 36.5757 18.7295 37.5834 22.0003 37.5834Z" fill="#C4CAD3"/>
</svg>
