<svg width="48" height="48" viewBox="0 0 48 48" fill="none" xmlns="http://www.w3.org/2000/svg">
<rect width="48" height="48" rx="12" fill="#9B59B6"/>
<path fill-rule="evenodd" clip-rule="evenodd" d="M28.3259 18.2046H19.6741C15.2869 18.2046 13.0932 18.2046 11.861 19.4875C10.6288 20.7704 10.9187 22.7524 11.4986 26.7164L12.0484 30.4755C12.5031 33.5841 12.7305 35.1384 13.8968 36.0692C15.0632 37 16.7835 37 20.224 37H27.7761C31.2166 37 32.9369 37 34.1032 36.0692C35.2696 35.1384 35.4969 33.5841 35.9516 30.4755L36.5015 26.7164C37.0813 22.7524 37.3713 20.7703 36.1391 19.4875C34.9068 18.2046 32.7132 18.2046 28.3259 18.2046ZM27.3556 28.9325C28.0815 28.4824 28.0815 27.3175 27.3556 26.8675L22.9726 24.1503C22.267 23.7129 21.4 24.2822 21.4 25.1828V30.6171C21.4 31.5177 22.267 32.087 22.9726 31.6496L27.3556 28.9325Z" fill="white"/>
<path opacity="0.4" d="M19.4627 11H28.5369C28.8391 10.9999 29.0708 10.9999 29.2734 11.0197C30.7135 11.1606 31.8923 12.0265 32.3922 13.1928H15.6074C16.1073 12.0265 17.2861 11.1606 18.7262 11.0197C18.9288 10.9999 19.1605 10.9999 19.4627 11Z" fill="white"/>
<path opacity="0.7" d="M16.6036 14.5393C14.7957 14.5393 13.3134 15.631 12.8187 17.0792C12.8084 17.1094 12.7985 17.1398 12.7891 17.1703C13.3067 17.0135 13.8453 16.9111 14.3906 16.8412C15.7951 16.6612 17.5701 16.6613 19.6319 16.6614H28.5917C30.6535 16.6613 32.4285 16.6612 33.833 16.8412C34.3783 16.9111 34.9169 17.0135 35.4345 17.1703C35.4251 17.1398 35.4152 17.1094 35.4049 17.0792C34.9102 15.631 33.4278 14.5393 31.62 14.5393H16.6036Z" fill="white"/>
</svg>
