<svg width="36" height="36" viewBox="0 0 36 36" fill="none" xmlns="http://www.w3.org/2000/svg">
<path fill-rule="evenodd" clip-rule="evenodd" d="M22.3259 12.2046H13.6741C9.28686 12.2046 7.09322 12.2046 5.86102 13.4875C4.62881 14.7704 4.91873 16.7524 5.49857 20.7164L6.04843 24.4755C6.50314 27.5841 6.7305 29.1384 7.89685 30.0692C9.06319 31 10.7835 31 14.224 31H21.7761C25.2166 31 26.9369 31 28.1032 30.0692C29.2696 29.1384 29.4969 27.5841 29.9516 24.4755L30.5015 20.7164C31.0813 16.7524 31.3713 14.7703 30.1391 13.4875C28.9068 12.2046 26.7132 12.2046 22.3259 12.2046ZM21.3556 22.9325C22.0815 22.4824 22.0815 21.3175 21.3556 20.8675L16.9726 18.1503C16.267 17.7129 15.4 18.2822 15.4 19.1828V24.6171C15.4 25.5177 16.267 26.087 16.9726 25.6496L21.3556 22.9325Z" fill="white"/>
<path opacity="0.4" d="M13.4627 5.00001H22.5369C22.8391 4.99993 23.0708 4.99988 23.2734 5.01969C24.7135 5.16057 25.8923 6.02646 26.3922 7.19281H9.60742C10.1073 6.02646 11.2861 5.16057 12.7262 5.01969C12.9288 4.99988 13.1605 4.99993 13.4627 5.00001Z" fill="white"/>
<path opacity="0.7" d="M10.6036 8.53931C8.79575 8.53931 7.3134 9.63099 6.81871 11.0792C6.8084 11.1094 6.79851 11.1398 6.78906 11.1703C7.30666 11.0135 7.84533 10.9111 8.39064 10.8412C9.79513 10.6612 11.5701 10.6613 13.6319 10.6614H22.5917C24.6535 10.6613 26.4285 10.6612 27.833 10.8412C28.3783 10.9111 28.9169 11.0135 29.4345 11.1703C29.4251 11.1398 29.4152 11.1094 29.4049 11.0792C28.9102 9.63099 27.4278 8.53931 25.62 8.53931H10.6036Z" fill="white"/>
</svg>
