<svg width="26" height="26" viewBox="0 0 26 26" fill="none" xmlns="http://www.w3.org/2000/svg">
<path fill-rule="evenodd" clip-rule="evenodd" d="M17.3259 7.20459H8.67413C4.28686 7.20459 2.09322 7.20459 0.861015 8.48747C-0.371192 9.77035 -0.0812727 11.7524 0.498566 15.7164L1.04843 19.4755C1.50314 22.5841 1.7305 24.1384 2.89685 25.0692C4.06319 26 5.78345 26 9.22397 26H16.7761C20.2166 26 21.9369 26 23.1032 25.0692C24.2696 24.1384 24.4969 22.5841 24.9516 19.4755L25.5015 15.7164C26.0813 11.7524 26.3713 9.77034 25.1391 8.48747C23.9068 7.20459 21.7132 7.20459 17.3259 7.20459ZM16.3556 17.9325C17.0815 17.4824 17.0815 16.3175 16.3556 15.8675L11.9726 13.1503C11.267 12.7129 10.4 13.2822 10.4 14.1828V19.6171C10.4 20.5177 11.267 21.087 11.9726 20.6496L16.3556 17.9325Z" fill="#9B59B6"/>
<path opacity="0.4" d="M8.46273 8.96792e-06H17.5369C17.8391 -6.57183e-05 18.0708 -0.000122928 18.2734 0.019691C19.7135 0.16057 20.8923 1.02646 21.3922 2.19281H4.60742C5.10729 1.02646 6.28608 0.16057 7.72624 0.019691C7.92879 -0.000123003 8.16051 -6.57183e-05 8.46273 8.96792e-06Z" fill="#9B59B6"/>
<path opacity="0.7" d="M5.60356 3.53931C3.79575 3.53931 2.3134 4.63099 1.81871 6.07924C1.8084 6.10944 1.79851 6.13978 1.78906 6.17027C2.30666 6.01353 2.84533 5.91113 3.39064 5.84122C4.79513 5.66117 6.57008 5.66126 8.63192 5.66137H17.5917C19.6535 5.66126 21.4285 5.66117 22.833 5.84122C23.3783 5.91113 23.9169 6.01353 24.4345 6.17027C24.4251 6.13978 24.4152 6.10944 24.4049 6.07924C23.9102 4.63099 22.4278 3.53931 20.62 3.53931H5.60356Z" fill="#9B59B6"/>
</svg>
